<svg width="24" height="24" viewBox="0 0 24 24" fill="none" xmlns="http://www.w3.org/2000/svg">
<path d="M17.8934 6.68644C23.452 13.2853 15.4083 22.4927 8.12576 17.8352C8.06658 17.7963 8.02529 17.7354 8.01098 17.666C7.99667 17.5966 8.01051 17.5244 8.04944 17.4653C8.08838 17.4061 8.14923 17.3648 8.21861 17.3505C8.28798 17.3362 8.3602 17.35 8.41938 17.3889C9.55294 18.1362 10.8811 18.5339 12.2388 18.5327C18.1394 18.5556 21.3749 11.4868 17.4989 7.04719L17.4554 7.40156C17.444 7.46953 17.4068 7.53048 17.3516 7.57171C17.2964 7.61293 17.2274 7.63125 17.159 7.62283C17.0906 7.61442 17.0281 7.57992 16.9845 7.52654C16.941 7.47315 16.9197 7.40501 16.9251 7.33631L17.0511 6.31331C17.055 6.27833 17.0659 6.24448 17.083 6.21374C17.1002 6.18301 17.1233 6.15602 17.151 6.13436C17.1788 6.11269 17.2106 6.0968 17.2446 6.0876C17.2785 6.07841 17.314 6.0761 17.3489 6.08081L18.3719 6.20681C18.4411 6.21686 18.5035 6.2536 18.546 6.30915C18.5884 6.36471 18.6074 6.43467 18.5988 6.50404C18.5903 6.57342 18.5549 6.6367 18.5003 6.68032C18.4457 6.72394 18.3762 6.74445 18.3066 6.73744L17.8934 6.68644ZM7.27263 15.5139C7.23751 15.5104 7.20204 15.5139 7.16832 15.5243C7.1346 15.5347 7.10331 15.5518 7.07631 15.5746C7.04931 15.5973 7.02715 15.6252 7.01114 15.6567C6.99514 15.6881 6.98561 15.7225 6.98313 15.7577L6.95426 16.0937C1.85425 9.95156 9.32538 1.46944 16.0581 5.78006C16.1173 5.81519 16.1877 5.82618 16.2547 5.81074C16.3217 5.7953 16.3802 5.75462 16.418 5.69716C16.4559 5.63969 16.4701 5.56987 16.4577 5.5022C16.4454 5.43453 16.4074 5.37422 16.3518 5.33381C15.1312 4.52884 13.7009 4.10034 12.2388 4.10156C5.929 4.07719 2.42951 11.5971 6.50876 16.3956L6.13 16.3423C6.0614 16.3357 5.99289 16.3559 5.93879 16.3986C5.88468 16.4413 5.84916 16.5032 5.83963 16.5715C5.8301 16.6398 5.8473 16.7091 5.88764 16.7649C5.92797 16.8208 5.98834 16.859 6.05613 16.8714L7.12825 17.0218C7.16412 17.0266 7.20057 17.024 7.23543 17.0144C7.27029 17.0047 7.30284 16.9881 7.33113 16.9655C7.35942 16.943 7.38287 16.9149 7.40008 16.8831C7.41728 16.8513 7.42788 16.8163 7.43125 16.7803L7.51563 15.8034C7.51867 15.7685 7.51479 15.7333 7.50422 15.6999C7.49365 15.6664 7.47659 15.6354 7.45403 15.6085C7.43146 15.5817 7.40383 15.5595 7.3727 15.5434C7.34158 15.5272 7.30757 15.517 7.27263 15.5139ZM17.3151 11.5854C17.0391 18.3193 7.43913 18.3219 7.16088 11.5854C7.15271 10.9135 7.278 10.2466 7.52949 9.62349C7.78098 9.00035 8.15365 8.43332 8.62592 7.95528C9.09818 7.47724 9.66064 7.0977 10.2807 6.83866C10.9007 6.57962 11.566 6.44623 12.238 6.44623C12.91 6.44623 13.5753 6.57962 14.1953 6.83866C14.8154 7.0977 15.3778 7.47724 15.8501 7.95528C16.3224 8.43332 16.695 9.00035 16.9465 9.62349C17.198 10.2466 17.3233 10.9135 17.3151 11.5854ZM8.3635 11.3177C8.29284 11.3177 8.22507 11.3458 8.17511 11.3957C8.12514 11.4457 8.09707 11.5135 8.09707 11.5841C8.09707 11.6548 8.12514 11.7226 8.17511 11.7725C8.22507 11.8225 8.29284 11.8506 8.3635 11.8506C8.43417 11.8506 8.50194 11.8225 8.5519 11.7725C8.60187 11.7226 8.62994 11.6548 8.62994 11.5841C8.62994 11.5135 8.60187 11.4457 8.5519 11.3957C8.50194 11.3458 8.43417 11.3177 8.3635 11.3177ZM12.2448 7.96931C12.3154 7.96931 12.3832 7.94124 12.4332 7.89127C12.4831 7.84131 12.5112 7.77354 12.5112 7.70288C12.5112 7.63221 12.4831 7.56444 12.4332 7.51448C12.3832 7.46451 12.3154 7.43644 12.2448 7.43644C12.1741 7.43644 12.1063 7.46451 12.0564 7.51448C12.0064 7.56444 11.9783 7.63221 11.9783 7.70288C11.9783 7.77354 12.0064 7.84131 12.0564 7.89127C12.1063 7.94124 12.1741 7.96931 12.2448 7.96931ZM12.2448 15.1989C12.1737 15.1989 12.1056 15.2271 12.0554 15.2774C12.0052 15.3276 11.977 15.3957 11.977 15.4667C11.977 15.5377 12.0052 15.6058 12.0554 15.656C12.1056 15.7062 12.1737 15.7344 12.2448 15.7344C12.3158 15.7344 12.3839 15.7062 12.4341 15.656C12.4843 15.6058 12.5125 15.5377 12.5125 15.4667C12.5125 15.3957 12.4843 15.3276 12.4341 15.2774C12.3839 15.2271 12.3158 15.1989 12.2448 15.1989ZM14.1865 9.26044L12.2391 11.2078L11.2615 10.2302C11.2114 10.1801 11.1435 10.152 11.0727 10.152C11.0019 10.152 10.934 10.1801 10.8839 10.2302C10.8338 10.2803 10.8057 10.3482 10.8057 10.419C10.8057 10.4898 10.8338 10.5577 10.8839 10.6078L12.049 11.7729C12.0738 11.7978 12.1032 11.8175 12.1356 11.8309C12.168 11.8444 12.2027 11.8513 12.2378 11.8513C12.2729 11.8513 12.3076 11.8444 12.34 11.8309C12.3724 11.8175 12.4019 11.7978 12.4266 11.7729L14.5641 9.63806C14.6142 9.58799 14.6423 9.52007 14.6423 9.44925C14.6423 9.37843 14.6142 9.31051 14.5641 9.26044C14.5141 9.21036 14.4461 9.18223 14.3753 9.18223C14.3045 9.18223 14.2366 9.21036 14.1865 9.26044ZM16.126 11.8506C16.1967 11.8506 16.2644 11.8225 16.3144 11.7725C16.3644 11.7226 16.3924 11.6548 16.3924 11.5841C16.3924 11.5135 16.3644 11.4457 16.3144 11.3957C16.2644 11.3458 16.1967 11.3177 16.126 11.3177C16.0553 11.3177 15.9876 11.3458 15.9376 11.3957C15.8876 11.4457 15.8596 11.5135 15.8596 11.5841C15.8596 11.6548 15.8876 11.7226 15.9376 11.7725C15.9876 11.8225 16.0553 11.8506 16.126 11.8506ZM23.5 11.6016C23.5 13.8266 22.8402 16.0017 21.604 17.8517C20.3679 19.7018 18.6109 21.1437 16.5552 21.9952C14.4995 22.8467 12.2375 23.0695 10.0552 22.6354C7.87295 22.2013 5.86839 21.1299 4.29505 19.5565C2.72171 17.9832 1.65025 15.9786 1.21617 13.7963C0.782087 11.614 1.00487 9.35204 1.85636 7.29637C2.70785 5.24071 4.14979 3.4837 5.99984 2.24753C7.84989 1.01136 10.025 0.351563 12.25 0.351562C15.2327 0.354937 18.0922 1.54129 20.2012 3.65034C22.3103 5.75939 23.4966 8.61891 23.5 11.6016ZM22.8963 11.6016C22.8963 9.49593 22.2719 7.43759 21.102 5.68682C19.9322 3.93606 18.2695 2.5715 16.3242 1.76571C14.3788 0.959921 12.2382 0.749089 10.173 1.15988C8.10785 1.57067 6.21087 2.58462 4.72197 4.07353C3.23306 5.56243 2.21911 7.45941 1.80832 9.52458C1.39753 11.5898 1.60836 13.7304 2.41415 15.6757C3.21994 17.6211 4.5845 19.2838 6.33527 20.4536C8.08603 21.6234 10.1444 22.2478 12.25 22.2478C15.0726 22.2446 17.7787 21.122 19.7745 19.1261C21.7704 17.1302 22.8931 14.4241 22.8963 11.6016Z" fill="#0088FF"/>
</svg>
