<svg width="71" height="67" viewBox="0 0 71 67" fill="none" xmlns="http://www.w3.org/2000/svg">
<path d="M28.2631 45.2575C28.571 45.5304 29.0346 45.5359 29.3491 45.263C36.2094 39.3123 42.4625 33.069 49.9233 26.7698C50.5666 26.2263 50.9502 25.4668 51.0039 24.6285C51.1683 22.0246 48.0669 20.3194 45.9595 22.063C39.577 27.3342 34.2696 32.1156 29.3195 37.058C28.3464 36.086 27.0455 34.6964 25.4401 32.9123C24.1973 31.5337 21.9573 31.2948 20.4505 32.7841C19.8137 33.407 19.4428 34.2523 19.4157 35.1427C19.3885 36.033 19.7071 36.8994 20.3047 37.56C23.3031 40.8696 25.1847 42.52 28.2631 45.2575Z" fill="white"/>
<path d="M12.1537 60.0501C22.6666 68.22 38.5723 68.8622 49.5871 61.3827C59.0513 54.9564 64.603 42.5992 63.5992 31.1449C63.0008 14.1181 51.9367 3.51753 33.7406 2.68903C28.3882 2.43479 23.1871 3.75862 18.6019 6.45232C10.9417 10.0578 4.60741 16.5729 1.74933 24.563C-2.73505 37.1 1.63974 51.8803 12.1537 60.0501ZM8.49892 19.8792C13.6408 10.2594 22.8134 3.82986 33.665 4.33068C51.6617 5.1504 61.9828 15.4583 61.9828 32.6123C61.9828 48.2068 49.2967 60.894 33.7022 60.894C12.2151 60.894 -1.07587 37.7926 8.49892 19.8792Z" fill="white"/>
<path d="M56.4771 0.519361C55.4644 2.93446 54.7831 5.47551 54.4519 8.07333C54.4243 8.28972 54.4838 8.50821 54.6173 8.68075C54.7508 8.85328 54.9473 8.96572 55.1637 8.99333C55.3801 9.02094 55.5986 8.96147 55.7711 8.82798C55.9437 8.6945 56.0561 8.49794 56.0837 8.28155C56.3956 5.83077 57.0378 3.43349 57.9928 1.15498C58.0371 1.05503 58.061 0.947245 58.0631 0.837938C58.0652 0.728631 58.0455 0.619998 58.0052 0.518398C57.9648 0.416798 57.9046 0.324273 57.828 0.246241C57.7514 0.168209 57.66 0.106238 57.5592 0.0639559C57.4584 0.021674 57.3502 -6.87788e-05 57.2408 1.63439e-07C57.1315 6.91057e-05 57.0233 0.0219487 56.9225 0.0643578C56.8217 0.106767 56.7305 0.168853 56.654 0.246981C56.5775 0.32511 56.5174 0.41771 56.4771 0.519361ZM66.8026 5.91443C66.7367 5.82886 66.6546 5.75715 66.5609 5.70343C66.4672 5.64971 66.3638 5.61503 66.2567 5.60138C66.1496 5.58774 66.0408 5.59539 65.9366 5.62392C65.8325 5.65244 65.735 5.70126 65.6497 5.76758L60.1341 10.0383C60.0444 10.1027 59.9685 10.1845 59.9111 10.2789C59.8536 10.3733 59.8158 10.4783 59.7999 10.5876C59.784 10.6969 59.7902 10.8083 59.8183 10.9152C59.8464 11.022 59.8958 11.1221 59.9635 11.2095C60.0311 11.2968 60.1157 11.3696 60.2121 11.4235C60.3086 11.4774 60.4149 11.5114 60.5247 11.5233C60.6346 11.5352 60.7457 11.5248 60.8514 11.4928C60.9572 11.4607 61.0554 11.4077 61.1402 11.3369L66.6558 7.06731C66.8281 6.93388 66.9404 6.73747 66.9679 6.52127C66.9955 6.30508 66.936 6.0868 66.8026 5.91443ZM70.9177 15.4739C70.8844 15.3711 70.8312 15.2759 70.761 15.1938C70.6908 15.1116 70.605 15.0442 70.5087 14.9953C70.4124 14.9464 70.3073 14.9171 70.1996 14.9089C70.0918 14.9008 69.9836 14.914 69.881 14.9479C68.0311 15.5506 66.1133 15.8432 64.1549 15.7972C63.7275 15.8125 63.3265 16.1479 63.3166 16.6026C63.3144 16.7106 63.3335 16.8179 63.3728 16.9185C63.4121 17.019 63.4709 17.1108 63.5457 17.1887C63.6205 17.2665 63.7099 17.3289 63.8088 17.3722C63.9077 17.4155 64.0141 17.4389 64.1221 17.441C66.249 17.4841 68.3681 17.1692 70.3906 16.5095C70.5976 16.4418 70.7692 16.2947 70.8678 16.1005C70.9665 15.9064 70.9851 15.681 70.9177 15.4739Z" fill="white"/>
</svg>
