<svg width="24" height="24" viewBox="0 0 24 24" fill="none" xmlns="http://www.w3.org/2000/svg">
<path d="M21.9998 12.0006C21.9998 12.2658 21.8944 12.5201 21.7069 12.7077C21.5194 12.8952 21.265 13.0006 20.9998 13.0006H5.41379L7.70679 15.2936C7.8023 15.3858 7.87848 15.4962 7.93089 15.6182C7.9833 15.7402 8.01088 15.8714 8.01204 16.0042C8.01319 16.1369 7.98789 16.2686 7.93761 16.3915C7.88733 16.5144 7.81307 16.6261 7.71918 16.72C7.62529 16.8139 7.51364 16.8881 7.39074 16.9384C7.26784 16.9887 7.13616 17.014 7.00339 17.0128C6.87061 17.0117 6.73939 16.9841 6.61738 16.9317C6.49538 16.8793 6.38503 16.8031 6.29279 16.7076L2.29279 12.7076C2.10532 12.52 2 12.2657 2 12.0006C2 11.7354 2.10532 11.4811 2.29279 11.2936L6.29279 7.29357C6.38503 7.19806 6.49538 7.12188 6.61738 7.06947C6.73939 7.01706 6.87061 6.98947 7.00339 6.98832C7.13616 6.98717 7.26784 7.01247 7.39074 7.06275C7.51364 7.11303 7.62529 7.18728 7.71918 7.28117C7.81307 7.37507 7.88733 7.48672 7.93761 7.60962C7.98789 7.73251 8.01319 7.86419 8.01204 7.99697C8.01088 8.12975 7.9833 8.26097 7.93089 8.38297C7.87848 8.50498 7.8023 8.61532 7.70679 8.70757L5.41379 11.0006H20.9998C21.265 11.0006 21.5194 11.1059 21.7069 11.2935C21.8944 11.481 21.9998 11.7354 21.9998 12.0006Z" fill="black"/>
</svg>
