<svg width="16" height="16" viewBox="0 0 16 16" fill="none" xmlns="http://www.w3.org/2000/svg">
<g clip-path="url(#clip0_503_9014)">
<path d="M8.38789 0.55833L10.5588 2.72953C10.6093 2.77988 10.6493 2.83971 10.6766 2.90558C10.7039 2.97145 10.7179 3.04207 10.7178 3.11337C10.7179 3.22077 10.6861 3.32576 10.6264 3.41508C10.5668 3.50439 10.482 3.574 10.3828 3.6151C10.2836 3.6562 10.1744 3.66693 10.069 3.64595C9.96372 3.62496 9.86699 3.5732 9.79109 3.49721L8.54629 2.25241V15.0567C8.54629 15.2007 8.4891 15.3388 8.38729 15.4406C8.28548 15.5424 8.14739 15.5996 8.00341 15.5996C7.85943 15.5996 7.72135 15.5424 7.61954 15.4406C7.51773 15.3388 7.46053 15.2007 7.46053 15.0567V2.25241L6.21573 3.49721C6.11393 3.59901 5.97586 3.6562 5.83189 3.6562C5.68793 3.6562 5.54985 3.59901 5.44805 3.49721C5.34625 3.39541 5.28906 3.25734 5.28906 3.11337C5.28906 2.9694 5.34625 2.83133 5.44805 2.72953L7.61925 0.55833C7.66971 0.507842 7.72963 0.467792 7.79557 0.440467C7.86151 0.413141 7.93219 0.399076 8.00357 0.399076C8.07495 0.399076 8.14564 0.413141 8.21158 0.440467C8.27752 0.467792 8.33743 0.507842 8.38789 0.55833Z" fill="#34C759"/>
</g>
<defs>
<clipPath id="clip0_503_9014">
<rect width="16" height="16" fill="white" transform="matrix(0 -1 1 0 0 16)"/>
</clipPath>
</defs>
</svg>
