<svg width="23" height="23" viewBox="0 0 23 23" fill="none" xmlns="http://www.w3.org/2000/svg">
<path d="M0.75 3.55125C0.749978 3.19018 0.880196 2.84122 1.11675 2.56843C1.3533 2.29565 1.68031 2.11734 2.03775 2.06625L11.25 0.75V21.75L2.03775 20.4338C1.68031 20.3827 1.3533 20.2044 1.11675 19.9316C0.880196 19.6588 0.749978 19.3098 0.75 18.9487V3.55125Z" fill="#42A5F5"/>
<path fill-rule="evenodd" clip-rule="evenodd" d="M12 0.749993C12 0.642566 11.9769 0.536394 11.9323 0.43866C11.8877 0.340927 11.8227 0.253915 11.7415 0.183512C11.6604 0.113109 11.5651 0.0609587 11.462 0.0305907C11.359 0.000222713 11.2506 -0.0076543 11.1442 0.00749284L1.932 1.32374C1.39578 1.4003 0.905172 1.66772 0.550266 2.07691C0.19536 2.4861 -2.05465e-05 3.00958 1.62061e-09 3.55124V18.9487C-2.05465e-05 19.4904 0.19536 20.0139 0.550266 20.4231C0.905172 20.8323 1.39578 21.0997 1.932 21.1762L11.1442 22.4925C11.2506 22.5076 11.359 22.4998 11.462 22.4694C11.5651 22.439 11.6604 22.3869 11.7415 22.3165C11.8227 22.2461 11.8877 22.1591 11.9323 22.0613C11.9769 21.9636 12 21.8574 12 21.75V21H17.25C17.8467 21 18.419 20.7629 18.841 20.341C19.2629 19.919 19.5 19.3467 19.5 18.75V17.25C19.5 17.0511 19.421 16.8603 19.2803 16.7197C19.1397 16.579 18.9489 16.5 18.75 16.5C18.5511 16.5 18.3603 16.579 18.2197 16.7197C18.079 16.8603 18 17.0511 18 17.25V18.75C18 18.9489 17.921 19.1397 17.7803 19.2803C17.6397 19.421 17.4489 19.5 17.25 19.5H12V2.99999H17.25C17.4489 2.99999 17.6397 3.07901 17.7803 3.21966C17.921 3.36031 18 3.55108 18 3.74999V5.24999C18 5.4489 18.079 5.63967 18.2197 5.78032C18.3603 5.92097 18.5511 5.99999 18.75 5.99999C18.9489 5.99999 19.1397 5.92097 19.2803 5.78032C19.421 5.63967 19.5 5.4489 19.5 5.24999V3.74999C19.5 3.15326 19.2629 2.58096 18.841 2.159C18.419 1.73705 17.8467 1.49999 17.25 1.49999H12V0.749993ZM10.5 2.24999V1.61474L2.14425 2.80874C1.96546 2.83421 1.80187 2.92332 1.68352 3.05973C1.56516 3.19613 1.5 3.37065 1.5 3.55124V18.9487C1.5 19.1293 1.56516 19.3039 1.68352 19.4403C1.80187 19.5767 1.96546 19.6658 2.14425 19.6912L10.5 20.8852V20.25V2.24999Z" fill="#1976D2"/>
<path fill-rule="evenodd" clip-rule="evenodd" d="M19.2803 7.7203C19.1388 7.58368 18.9493 7.50809 18.7527 7.50979C18.5561 7.5115 18.3679 7.59038 18.2289 7.72944C18.0898 7.86849 18.011 8.0566 18.0092 8.25325C18.0075 8.4499 18.0831 8.63935 18.2197 8.7808L19.9395 10.5005H14.25C14.0511 10.5005 13.8603 10.5796 13.7197 10.7202C13.579 10.8609 13.5 11.0516 13.5 11.2505C13.5 11.4495 13.579 11.6402 13.7197 11.7809C13.8603 11.9215 14.0511 12.0005 14.25 12.0005H19.9395L18.2197 13.7203C18.0831 13.8618 18.0075 14.0512 18.0092 14.2479C18.011 14.4445 18.0898 14.6326 18.2289 14.7717C18.3679 14.9107 18.5561 14.9896 18.7527 14.9913C18.9493 14.993 19.1388 14.9174 19.2803 14.7808L22.2787 11.7823C22.349 11.7129 22.4047 11.6302 22.4428 11.5392C22.4809 11.4481 22.5006 11.3503 22.5008 11.2516C22.5009 11.1529 22.4815 11.0551 22.4437 10.9639C22.4058 10.8727 22.3503 10.7899 22.2803 10.7203L19.2803 7.7203Z" fill="#1976D2"/>
<path fill-rule="evenodd" clip-rule="evenodd" d="M9 9.75C9.19891 9.75 9.38968 9.82902 9.53033 9.96967C9.67098 10.1103 9.75 10.3011 9.75 10.5V12C9.75 12.1989 9.67098 12.3897 9.53033 12.5303C9.38968 12.671 9.19891 12.75 9 12.75C8.80109 12.75 8.61032 12.671 8.46967 12.5303C8.32902 12.3897 8.25 12.1989 8.25 12V10.5C8.25 10.3011 8.32902 10.1103 8.46967 9.96967C8.61032 9.82902 8.80109 9.75 9 9.75Z" fill="#E3F2FD"/>
</svg>
