<svg width="24" height="24" viewBox="0 0 24 24" fill="none" xmlns="http://www.w3.org/2000/svg">
<path d="M2 6C1.73478 6 1.48043 5.89464 1.29289 5.70711C1.10536 5.51957 1 5.26522 1 5V4C1 3.20435 1.31607 2.44129 1.87868 1.87868C2.44129 1.31607 3.20435 1 4 1H5C5.26522 1 5.51957 1.10536 5.70711 1.29289C5.89464 1.48043 6 1.73478 6 2C6 2.26522 5.89464 2.51957 5.70711 2.70711C5.51957 2.89464 5.26522 3 5 3H4C3.73478 3 3.48043 3.10536 3.29289 3.29289C3.10536 3.48043 3 3.73478 3 4V5C3 5.26522 2.89464 5.51957 2.70711 5.70711C2.51957 5.89464 2.26522 6 2 6ZM22 6C21.7348 6 21.4804 5.89464 21.2929 5.70711C21.1054 5.51957 21 5.26522 21 5V4C21 3.73478 20.8946 3.48043 20.7071 3.29289C20.5196 3.10536 20.2652 3 20 3H19C18.7348 3 18.4804 2.89464 18.2929 2.70711C18.1054 2.51957 18 2.26522 18 2C18 1.73478 18.1054 1.48043 18.2929 1.29289C18.4804 1.10536 18.7348 1 19 1H20C20.7956 1 21.5587 1.31607 22.1213 1.87868C22.6839 2.44129 23 3.20435 23 4V5C23 5.26522 22.8946 5.51957 22.7071 5.70711C22.5196 5.89464 22.2652 6 22 6ZM5 23H4C3.20435 23 2.44129 22.6839 1.87868 22.1213C1.31607 21.5587 1 20.7956 1 20V19C1 18.7348 1.10536 18.4804 1.29289 18.2929C1.48043 18.1054 1.73478 18 2 18C2.26522 18 2.51957 18.1054 2.70711 18.2929C2.89464 18.4804 3 18.7348 3 19V20C3 20.2652 3.10536 20.5196 3.29289 20.7071C3.48043 20.8946 3.73478 21 4 21H5C5.26522 21 5.51957 21.1054 5.70711 21.2929C5.89464 21.4804 6 21.7348 6 22C6 22.2652 5.89464 22.5196 5.70711 22.7071C5.51957 22.8946 5.26522 23 5 23ZM20 23H19C18.7348 23 18.4804 22.8946 18.2929 22.7071C18.1054 22.5196 18 22.2652 18 22C18 21.7348 18.1054 21.4804 18.2929 21.2929C18.4804 21.1054 18.7348 21 19 21H20C20.2652 21 20.5196 20.8946 20.7071 20.7071C20.8946 20.5196 21 20.2652 21 20V19C21 18.7348 21.1054 18.4804 21.2929 18.2929C21.4804 18.1054 21.7348 18 22 18C22.2652 18 22.5196 18.1054 22.7071 18.2929C22.8946 18.4804 23 18.7348 23 19V20C23 20.7956 22.6839 21.5587 22.1213 22.1213C21.5587 22.6839 20.7956 23 20 23ZM4 11H5V13H4C3.73478 13 3.48043 12.8946 3.29289 12.7071C3.10536 12.5196 3 12.2652 3 12C3 11.7348 3.10536 11.4804 3.29289 11.2929C3.48043 11.1054 3.73478 11 4 11ZM21 12C21 12.2652 20.8946 12.5196 20.7071 12.7071C20.5196 12.8946 20.2652 13 20 13H19V11H20C20.2652 11 20.5196 11.1054 20.7071 11.2929C20.8946 11.4804 21 11.7348 21 12ZM19 8V11H5V8C5.00237 7.20508 5.31921 6.4434 5.8813 5.8813C6.4434 5.31921 7.20508 5.00237 8 5H16C16.7949 5.00237 17.5566 5.31921 18.1187 5.8813C18.6808 6.4434 18.9976 7.20508 19 8ZM5 13H19V16C18.9976 16.7949 18.6808 17.5566 18.1187 18.1187C17.5566 18.6808 16.7949 18.9976 16 19H8C7.20508 18.9976 6.4434 18.6808 5.8813 18.1187C5.31921 17.5566 5.00237 16.7949 5 16V13Z" fill="black"/>
</svg>
