<svg width="24" height="24" viewBox="0 0 24 24" fill="none" xmlns="http://www.w3.org/2000/svg">
<g clip-path="url(#clip0_628_1230)">
<path d="M15.7686 8.78418H21.7939C21.906 8.78428 21.997 8.87528 21.9971 8.9873V12C21.9971 12.1121 21.906 12.203 21.7939 12.2031H18.9844V14.8096H21.7939C21.9061 14.8096 21.9971 14.9005 21.9971 15.0127V17.5752H11.0469V15.0127C11.0469 14.9005 11.1378 14.8096 11.25 14.8096H18.5781V12.2031H15.7686C15.6565 12.203 15.5654 12.1121 15.5654 12V8.9873C15.5655 8.87527 15.6565 8.78427 15.7686 8.78418ZM7.48438 0.5C9.47841 0.500008 11.1015 2.1231 11.1016 4.11719C11.1016 6.11124 9.47843 7.73437 7.48438 7.73438C5.49032 7.73438 3.8672 6.11129 3.86719 4.11719C3.86719 2.12313 5.49031 0.5 7.48438 0.5Z" stroke="black"/>
<path d="M0.703125 19.9814H23.2969C23.409 19.9814 23.5 20.0724 23.5 20.1846V23.2969C23.5 23.409 23.409 23.5 23.2969 23.5H0.703125C0.590977 23.5 0.500037 23.409 0.5 23.2969V20.1846C0.5 20.0724 0.590955 19.9814 0.703125 19.9814ZM7.45215 8.73438C9.784 8.72145 11.7614 10.2758 12.3926 12.4033H11.2471C9.80803 12.4033 8.6377 13.573 8.6377 15.0127V17.5752H2.35742V13.9189C2.35745 11.0833 4.63122 8.74972 7.45215 8.73438Z" stroke="black"/>
</g>
<defs>
<clipPath id="clip0_628_1230">
<rect width="24" height="24" fill="white"/>
</clipPath>
</defs>
</svg>
