<svg width="20" height="20" viewBox="0 0 20 20" fill="none" xmlns="http://www.w3.org/2000/svg">
<path d="M10 20C4.48578 20 0 15.5142 0 10C0 4.48578 4.48578 0 10 0C15.5142 0 20 4.48578 20 10C20 15.5142 15.5142 20 10 20ZM10 1.25C5.175 1.25 1.25 5.175 1.25 10C1.25 14.825 5.175 18.75 10 18.75C14.825 18.75 18.75 14.825 18.75 10C18.75 5.175 14.825 1.25 10 1.25Z" fill="#DE4717"/>
<path d="M5.74988 14.9257C5.55779 14.9257 5.3657 14.8528 5.21973 14.7057C4.92676 14.4128 4.92676 13.9378 5.21973 13.6448L12.6447 6.21973C12.9378 5.92676 13.4128 5.92676 13.7058 6.21973C13.9988 6.5127 13.9988 6.98768 13.7058 7.28084L6.28069 14.7057C6.21099 14.7755 6.12823 14.8308 6.03714 14.8685C5.94605 14.9062 5.84843 14.9257 5.74984 14.9257H5.74988Z" fill="#DE4717"/>
<path d="M14.1747 14.9247C13.9828 14.9247 13.7907 14.8519 13.6448 14.7048L6.21987 7.28079C5.92671 6.98782 5.92671 6.51284 6.21987 6.21987C6.51284 5.92671 6.98782 5.92671 7.28079 6.21987L14.7057 13.6448C14.9989 13.9378 14.9989 14.4128 14.7057 14.7057C14.6359 14.7753 14.5531 14.8305 14.462 14.8681C14.3709 14.9057 14.2733 14.9249 14.1747 14.9247Z" fill="#DE4717"/>
</svg>
