<svg width="257" height="21" viewBox="0 0 257 21" fill="none" xmlns="http://www.w3.org/2000/svg">
<path d="M0.315097 18.1404C0.0585308 18.2426 -0.0666736 18.5333 0.0354454 18.7899C0.137564 19.0465 0.428336 19.1717 0.684903 19.0696L0.5 18.605L0.315097 18.1404ZM256.5 18.605L252.406 14.5337L250.927 20.1145L256.5 18.605ZM0.5 18.605L0.684903 19.0696C1.54892 18.7257 2.45462 18.3781 3.40136 18.0279L3.22789 17.559L3.05442 17.09C2.10045 17.4429 1.18711 17.7934 0.315097 18.1404L0.5 18.605ZM8.79421 15.6275L8.94936 16.1028C10.718 15.5255 12.5906 14.9457 14.5643 14.3673L14.4237 13.8875L14.2831 13.4077C12.3002 13.9887 10.4179 14.5716 8.63906 15.1522L8.79421 15.6275ZM20.1185 12.2998L20.2468 12.7831C22.0829 12.2958 23.9902 11.8123 25.9671 11.3349L25.8498 10.8488L25.7324 10.3628C23.7484 10.8419 21.8338 11.3273 19.9903 11.8165L20.1185 12.2998ZM31.6038 9.52156L31.7114 10.0099C33.5791 9.59855 35.5002 9.19387 37.4734 8.79752L37.375 8.30731L37.2765 7.8171C35.2973 8.21465 33.3701 8.6206 31.4963 9.03326L31.6038 9.52156ZM43.1615 7.19748L43.2514 7.68932C45.1408 7.34368 47.0725 7.00631 49.0456 6.67851L48.9637 6.18527L48.8818 5.69203C46.9033 6.02072 44.9662 6.35902 43.0715 6.70564L43.1615 7.19748ZM54.7829 5.26528L54.8572 5.75974C56.7658 5.47307 58.7094 5.19575 60.6874 4.9288L60.6206 4.4333L60.5537 3.93779C58.5708 4.2054 56.6222 4.48342 54.7086 4.77083L54.7829 5.26528ZM66.4782 3.686L66.5379 4.18242C68.4656 3.95054 70.4232 3.72879 72.41 3.51803L72.3572 3.02082L72.3045 2.52361C70.313 2.73486 68.3508 2.95714 66.4185 3.18958L66.4782 3.686ZM78.2216 2.43919L78.2676 2.93707C80.1944 2.75914 82.1466 2.59174 84.1237 2.4356L84.0844 1.93715L84.045 1.4387C82.0634 1.5952 80.1068 1.76297 78.1757 1.94131L78.2216 2.43919ZM89.9707 1.51099L90.0036 2.00991C91.9493 1.88175 93.9176 1.76463 95.9079 1.6592L95.8815 1.1599L95.855 0.660597C93.8604 0.766256 91.8878 0.88363 89.9378 1.01207L89.9707 1.51099ZM101.756 0.885773L101.776 1.38537C103.718 1.30696 105.679 1.23979 107.659 1.18441L107.645 0.684606L107.631 0.184801C105.647 0.240296 103.682 0.30761 101.736 0.38618L101.756 0.885773ZM113.561 0.555659L113.569 1.0556C115.513 1.02517 117.473 1.0062 119.451 0.999176L119.45 0.499179L119.448 -0.000817895C117.466 0.00621882 115.501 0.0252321 113.554 0.0557199L113.561 0.555659ZM125.342 0.513636L125.337 1.01362C127.293 1.03012 129.265 1.05839 131.252 1.09889L131.262 0.598996L131.273 0.0990998C129.281 0.05852 127.306 0.030192 125.346 0.0136543L125.342 0.513636ZM137.14 0.753399L137.124 1.25314C139.073 1.3158 141.037 1.39029 143.014 1.47704L143.036 0.977522L143.058 0.478003C141.077 0.391083 139.109 0.31644 137.156 0.253658L137.14 0.753399ZM148.942 1.27117L148.914 1.7704C150.856 1.87828 152.811 1.99805 154.778 2.13008L154.811 1.6312L154.845 1.13232C152.874 1.00004 150.915 0.880034 148.97 0.77194L148.942 1.27117ZM160.712 2.06143L160.673 2.55989C162.614 2.71271 164.567 2.87754 166.532 3.05474L166.577 2.55676L166.622 2.05878C164.653 1.88124 162.696 1.71609 160.751 1.56298L160.712 2.06143ZM172.451 3.12028L172.4 3.61771C174.345 3.81547 176.301 4.02542 178.267 4.24787L178.323 3.75104L178.379 3.25421C176.409 3.03133 174.45 2.82098 172.501 2.62284L172.451 3.12028ZM184.169 4.44588L184.107 4.94205C186.053 5.18442 188.009 5.4391 189.974 5.70641L190.041 5.21097L190.108 4.71553C188.14 4.44772 186.18 4.19255 184.231 3.94972L184.169 4.44588ZM195.858 6.03542L195.786 6.53007C197.725 6.81596 199.673 7.11421 201.63 7.4251L201.709 6.93129L201.787 6.43749C199.827 6.126 197.875 5.82719 195.931 5.54076L195.858 6.03542ZM207.511 7.88608L207.427 8.37899C209.358 8.70767 211.297 9.04872 213.244 9.40241L213.333 8.91046L213.422 8.41852C211.472 8.06416 209.53 7.72247 207.595 7.39317L207.511 7.88608ZM219.121 9.9951L219.026 10.486C220.948 10.8571 222.877 11.2405 224.813 11.6366L224.913 11.1467L225.013 10.6568C223.073 10.2601 221.141 9.87591 219.216 9.50417L219.121 9.9951ZM230.681 12.3597L230.575 12.8484C232.487 13.2614 234.406 13.6869 236.332 14.1249L236.442 13.6374L236.553 13.1498C234.624 12.711 232.702 12.2848 230.787 11.871L230.681 12.3597ZM242.186 14.9771L242.07 15.4634C243.972 15.918 245.88 16.3851 247.794 16.8647L247.916 16.3797L248.038 15.8947C246.12 15.4142 244.208 14.9463 242.302 14.4908L242.186 14.9771Z" fill="black"/>
</svg>
