<svg width="24" height="24" viewBox="0 0 24 24" fill="none" xmlns="http://www.w3.org/2000/svg">
<g clip-path="url(#clip0_628_2252)">
<g clip-path="url(#clip1_628_2252)">
<path fill-rule="evenodd" clip-rule="evenodd" d="M16.4146 11.3888L16.1174 13.665C16.1124 13.7038 16.0997 13.7412 16.0802 13.7751C16.0607 13.8091 16.0347 13.8388 16.0037 13.8627C15.9727 13.8865 15.9373 13.9041 15.8996 13.9143C15.8618 13.9244 15.8224 13.9271 15.7836 13.922L13.7136 13.6518C13.6748 13.6467 13.6374 13.6341 13.6035 13.6145C13.5696 13.595 13.5398 13.569 13.516 13.538C13.4921 13.507 13.4746 13.4716 13.4645 13.4338C13.4543 13.3961 13.4517 13.3567 13.4567 13.3179L13.7539 11.0418C13.759 11.003 13.7716 10.9656 13.7911 10.9317C13.8106 10.8978 13.8366 10.868 13.8676 10.8442C13.8986 10.8203 13.934 10.8028 13.9718 10.7927C14.0096 10.7825 14.049 10.7799 14.0878 10.7849L16.1578 11.0552C16.1966 11.0603 16.234 11.0729 16.2679 11.0924C16.3018 11.1119 16.3315 11.1379 16.3553 11.1689C16.3792 11.1999 16.3967 11.2353 16.4069 11.2731C16.417 11.3109 16.4197 11.3503 16.4146 11.3891V11.3888ZM15.5653 13.2925L15.7856 11.6071L14.3063 11.4139L14.0862 13.0994L15.5655 13.2925H15.5653ZM15.8101 15.4886L15.5082 17.8015C15.5031 17.8403 15.4905 17.8777 15.471 17.9116C15.4514 17.9455 15.4254 17.9752 15.3944 17.999C15.3634 18.0229 15.328 18.0404 15.2902 18.0506C15.2525 18.0607 15.2131 18.0634 15.1743 18.0583L13.071 17.7837C13.0322 17.7786 12.9948 17.766 12.9609 17.7464C12.927 17.7269 12.8972 17.7009 12.8734 17.6699C12.8495 17.6389 12.832 17.6035 12.8219 17.5658C12.8117 17.528 12.8091 17.4886 12.8141 17.4498L13.1161 15.1369C13.1263 15.0586 13.1672 14.9876 13.2299 14.9394C13.2925 14.8912 13.3717 14.8699 13.45 14.8801L15.5533 15.1549C15.5921 15.1599 15.6295 15.1726 15.6634 15.1921C15.6973 15.2116 15.727 15.2376 15.7509 15.2686C15.7747 15.2996 15.7922 15.335 15.8024 15.3727C15.8126 15.4105 15.8152 15.4499 15.8101 15.4887V15.4886ZM14.956 17.429L15.181 15.7069L13.6684 15.5094L13.4434 17.2315L14.956 17.429ZM12.1431 10.9521L11.8459 13.2283C11.8357 13.3066 11.7948 13.3777 11.7322 13.4259C11.6696 13.474 11.5904 13.4954 11.512 13.4852L9.44203 13.2149C9.40324 13.2098 9.36583 13.1972 9.33193 13.1777C9.29803 13.1581 9.26831 13.1321 9.24446 13.1011C9.22061 13.0701 9.2031 13.0347 9.19294 12.997C9.18277 12.9592 9.18014 12.9198 9.1852 12.881L9.48239 10.6049C9.48745 10.5661 9.5001 10.5287 9.51961 10.4948C9.53913 10.4609 9.56514 10.4312 9.59614 10.4073C9.62715 10.3835 9.66255 10.366 9.70032 10.3558C9.73809 10.3456 9.77749 10.343 9.81628 10.3481L11.8862 10.6183C11.925 10.6234 11.9624 10.636 11.9963 10.6555C12.0302 10.675 12.06 10.701 12.0838 10.732C12.1077 10.763 12.1252 10.7984 12.1353 10.8362C12.1455 10.874 12.1481 10.9134 12.1431 10.9522V10.9521ZM11.2938 12.8558L11.5139 11.1703L10.0346 10.9772L9.81455 12.6627L11.2938 12.8558ZM11.5387 15.0519L11.2367 17.3647C11.2265 17.443 11.1856 17.5141 11.123 17.5623C11.0604 17.6104 10.9812 17.6318 10.9028 17.6216L8.79947 17.3469C8.76068 17.3419 8.72327 17.3292 8.68937 17.3097C8.65547 17.2902 8.62575 17.2642 8.6019 17.2332C8.57805 17.2022 8.56054 17.1668 8.55037 17.129C8.54021 17.0912 8.53758 17.0518 8.54264 17.013L8.84461 14.7002C8.84967 14.6614 8.86232 14.624 8.88183 14.5901C8.90135 14.5562 8.92735 14.5265 8.95836 14.5026C8.98936 14.4788 9.02476 14.4613 9.06254 14.4511C9.10031 14.441 9.13971 14.4383 9.1785 14.4434L11.2818 14.718C11.3206 14.7231 11.358 14.7357 11.3919 14.7552C11.4258 14.7747 11.4555 14.8007 11.4794 14.8317C11.5032 14.8628 11.5208 14.8981 11.5309 14.9359C11.5411 14.9737 11.5437 15.0131 11.5387 15.0519ZM10.6844 16.9924L10.9094 15.2703L9.39675 15.0728L9.17175 16.7949L10.6844 16.9924ZM7.55025 10.4074L7.25316 12.6836C7.24292 12.7619 7.20199 12.8329 7.13938 12.8811C7.07677 12.9293 6.9976 12.9506 6.91927 12.9404L4.84927 12.6701C4.81048 12.665 4.77307 12.6524 4.73917 12.6329C4.70527 12.6134 4.67554 12.5874 4.65169 12.5564C4.62785 12.5254 4.61034 12.49 4.60017 12.4522C4.59 12.4144 4.58738 12.375 4.59244 12.3362L4.88963 10.0601C4.89468 10.0213 4.90733 9.98391 4.92685 9.95001C4.94637 9.91611 4.97237 9.88638 5.00338 9.86254C5.03438 9.83869 5.06978 9.82118 5.10755 9.81101C5.14532 9.80084 5.18473 9.79821 5.22352 9.80328L7.29347 10.0735C7.33226 10.0786 7.36967 10.0912 7.40357 10.1107C7.43747 10.1303 7.46719 10.1563 7.49104 10.1873C7.51489 10.2183 7.5324 10.2537 7.54256 10.2914C7.55273 10.3292 7.55536 10.3686 7.5503 10.4074H7.55025ZM6.70092 12.3111L6.921 10.6257L5.44172 10.4325L5.22169 12.118L6.70092 12.3111ZM6.9458 14.5072L6.64388 16.82C6.63882 16.8588 6.62617 16.8962 6.60665 16.9301C6.58713 16.964 6.56113 16.9938 6.53013 17.0176C6.49912 17.0415 6.46372 17.059 6.42595 17.0691C6.38818 17.0793 6.34877 17.0819 6.30998 17.0769L4.20661 16.8023C4.12828 16.792 4.05723 16.7511 4.00907 16.6885C3.96091 16.6259 3.93958 16.5467 3.94978 16.4684L4.25175 14.1556C4.26198 14.0772 4.3029 14.0062 4.36551 13.958C4.42812 13.9098 4.5073 13.8885 4.58564 13.8987L6.68897 14.1733C6.72776 14.1784 6.76517 14.191 6.79907 14.2106C6.83297 14.2301 6.86269 14.2561 6.88654 14.2871C6.91039 14.3181 6.9279 14.3535 6.93807 14.3913C6.94823 14.429 6.95086 14.4684 6.9458 14.5072ZM6.09169 16.4476L6.31669 14.7255L4.80403 14.528L4.57903 16.2501L6.09169 16.4476ZM3.46472 7.57189L1.42486 18.343L17.0922 19.9381L19.1718 8.95798L3.57886 7.6054C3.53895 7.60202 3.50013 7.59062 3.46472 7.57189ZM7.43597 3.24392L7.43634 3.23843C7.43729 3.22618 7.439 3.214 7.44145 3.20197L7.49498 2.79172C7.51187 2.65716 7.47629 2.52127 7.39563 2.41225C7.31497 2.30323 7.19542 2.22946 7.06181 2.20625C7.0487 2.20542 7.03566 2.20373 7.02277 2.20118C6.88775 2.18946 6.75341 2.23014 6.64758 2.31479C6.54175 2.39944 6.47256 2.52158 6.45436 2.65587L6.39023 3.14548L6.38986 3.15106C6.38891 3.16332 6.3872 3.17552 6.38475 3.18757L6.33117 3.59778C6.3143 3.73234 6.3499 3.86822 6.43057 3.97723C6.51123 4.08624 6.63078 4.16 6.76439 4.1832C6.7775 4.18404 6.79055 4.18575 6.80344 4.18831C6.93845 4.20003 7.0728 4.15934 7.17863 4.07469C7.28446 3.99004 7.35366 3.86791 7.37189 3.73362L7.43597 3.24392ZM12.3642 3.64578L12.3645 3.64043C12.3655 3.62825 12.3672 3.61613 12.3696 3.60415L12.4298 3.14361C12.4466 3.00903 12.411 2.87312 12.3303 2.7641C12.2497 2.65508 12.1301 2.58132 11.9964 2.55814C11.9833 2.5573 11.9703 2.55559 11.9574 2.55303C11.8224 2.54129 11.688 2.58196 11.5822 2.66662C11.4763 2.75127 11.4071 2.87341 11.3889 3.00772L11.3186 3.54776L11.3183 3.55325C11.3173 3.56549 11.3156 3.57767 11.3131 3.58972L11.2663 3.94986C11.2494 4.08441 11.285 4.22031 11.3656 4.32932C11.4463 4.43834 11.5658 4.51211 11.6994 4.53532C11.7126 4.53615 11.7256 4.53784 11.7385 4.54039C11.8701 4.5518 12.0013 4.51341 12.106 4.43279C12.2107 4.35218 12.2814 4.23521 12.304 4.10501C12.305 4.09021 12.307 4.0755 12.3102 4.061L12.3644 3.64582L12.3642 3.64578ZM19.2987 20.1449L19.1544 21.4042L20.4485 20.3473L19.2987 20.1449ZM20.8155 6.90668L19.367 19.5504L22.5707 20.1142C22.376 18.87 21.7584 14.7559 20.8155 6.9065V6.90668ZM17.8905 3.79062L17.9126 3.62131C17.9505 3.32671 17.8701 3.0291 17.689 2.79364C17.508 2.55819 17.241 2.40408 16.9465 2.36506C16.652 2.32725 16.3544 2.40769 16.1191 2.58878C15.8837 2.76987 15.7296 3.03684 15.6907 3.33125L15.6545 3.60818L12.9982 3.39153L13.0205 3.22057C13.0584 2.92597 12.9781 2.62835 12.797 2.39288C12.6159 2.15742 12.3489 2.00332 12.0545 1.96432C11.7599 1.9265 11.4624 2.00692 11.227 2.18798C10.9917 2.36904 10.8376 2.63599 10.7986 2.93037L10.7623 3.20895L8.07023 2.98934L8.08598 2.8685C8.1238 2.5739 8.04333 2.27633 7.86219 2.04095C7.68105 1.80557 7.41402 1.65156 7.11956 1.61267C6.82502 1.57483 6.52749 1.65525 6.29212 1.83631C6.05675 2.01737 5.90271 2.28433 5.86373 2.57872L5.83388 2.80718L4.0583 2.66234C3.98197 2.65637 3.90627 2.67993 3.84682 2.72817C3.78737 2.77641 3.74872 2.84564 3.73884 2.92156L0.7785 18.5517C0.770784 18.593 0.771899 18.6355 0.78177 18.6764C0.791642 18.7173 0.810047 18.7556 0.835779 18.7889C0.86151 18.8222 0.893986 18.8496 0.931074 18.8694C0.968163 18.8893 1.00903 18.901 1.05098 18.904L2.64473 19.0662L2.46511 20.4424C2.4549 20.5207 2.47623 20.5999 2.5244 20.6625C2.57257 20.7251 2.64364 20.766 2.72198 20.7762L2.73136 20.7773L18.7452 22.3954C18.7878 22.3997 18.8309 22.3947 18.8714 22.3807H18.8716C18.8763 22.3791 18.8806 22.3775 18.885 22.3757H18.8854L18.8911 22.3734L18.8929 22.3726L18.8976 22.3706L18.9 22.3695L18.904 22.3676L18.9069 22.3662L18.9102 22.3645L18.9132 22.3629L18.9168 22.361L18.9198 22.3594L18.9233 22.3573L18.926 22.3558L18.9294 22.3537L18.9322 22.352C18.9433 22.3451 18.9539 22.3374 18.9639 22.3291L21.2237 20.4837L22.88 20.7753C22.9286 20.7837 22.9785 20.78 23.0253 20.7645C23.0721 20.7489 23.1144 20.722 23.1482 20.6862C23.1821 20.6503 23.2066 20.6067 23.2195 20.5591C23.2324 20.5114 23.2333 20.4614 23.2222 20.4133C23.1671 20.0777 22.3972 15.3269 21.1076 4.29851C21.1054 4.27729 21.101 4.25636 21.0945 4.23607L21.0935 4.23322L21.0922 4.22951L21.0901 4.22384V4.22347C21.076 4.18568 21.0543 4.15119 21.0263 4.12207L21.0244 4.12006L21.0218 4.11734L21.019 4.11467L21.017 4.11275C20.9879 4.0848 20.9534 4.06309 20.9156 4.04895H20.9153L20.9096 4.04689L20.9059 4.04562L20.903 4.04464C20.8806 4.03738 20.8575 4.03279 20.834 4.03095L17.8905 3.79062H17.8905ZM17.2565 4.04506L17.1988 4.48643C17.1806 4.62073 17.1114 4.74286 17.0056 4.82752C16.8998 4.91217 16.7654 4.95285 16.6304 4.94112C16.6175 4.9386 16.6045 4.93691 16.5914 4.93606C16.4577 4.91286 16.3382 4.8391 16.2575 4.73009C16.1769 4.62108 16.1413 4.48519 16.1581 4.35064L16.2054 3.9889C16.2078 3.97684 16.2095 3.96465 16.2105 3.95239L16.2109 3.94681L16.2812 3.40845C16.2994 3.27416 16.3686 3.15203 16.4744 3.06738C16.5803 2.98273 16.7146 2.94204 16.8496 2.95376C16.8625 2.95631 16.8756 2.958 16.8887 2.95882C17.0223 2.98205 17.1418 3.05581 17.2225 3.16482C17.3031 3.27382 17.3388 3.40969 17.3219 3.54425L17.262 4.00292C17.2596 4.01499 17.2578 4.0272 17.2569 4.03948L17.2565 4.04506H17.2565ZM20.0042 4.56223L19.2835 8.36801L3.63023 7.01004C3.61051 7.00833 3.59066 7.00856 3.57098 7.01075L4.27767 3.2795L5.75625 3.40011L5.74045 3.52095C5.70255 3.81555 5.78293 4.11316 5.96399 4.34862C6.14506 4.58407 6.41205 4.73818 6.7065 4.7772C7.00109 4.8151 7.29869 4.73471 7.53413 4.55363C7.76956 4.37256 7.92364 4.10555 7.96261 3.81111L7.99242 3.58264L10.6845 3.80225L10.6751 3.87298C10.6372 4.16757 10.7175 4.46519 10.8986 4.70064C11.0796 4.9361 11.3466 5.09021 11.6411 5.12923H11.6418C11.9363 5.16694 12.2339 5.0864 12.4692 4.90525C12.7045 4.72409 12.8584 4.45708 12.8973 4.16267L12.9208 3.98431L15.5771 4.20097L15.5678 4.27334C15.5298 4.56794 15.6102 4.86557 15.7913 5.10103C15.9723 5.33649 16.2393 5.4906 16.5338 5.52959C16.8283 5.56739 17.1259 5.48695 17.3612 5.30588C17.5966 5.12482 17.7506 4.85788 17.7896 4.5635L17.8131 4.38354L20.0042 4.56223ZM3.23752 19.1266L3.09534 20.2154L18.5113 21.7731L18.7406 19.7719C18.7411 19.7652 18.7419 19.7584 18.7429 19.7517L20.2874 6.27167L19.8228 8.72501C19.8212 8.73835 19.8187 8.75157 19.8153 8.76457L17.6274 20.3172C17.6137 20.3904 17.573 20.4559 17.5134 20.5006C17.4538 20.5454 17.3796 20.5661 17.3054 20.5588L3.23752 19.1266Z" fill="black"/>
</g>
</g>
<defs>
<clipPath id="clip0_628_2252">
<rect width="24" height="24" fill="white"/>
</clipPath>
<clipPath id="clip1_628_2252">
<rect width="24" height="24" fill="white"/>
</clipPath>
</defs>
</svg>
