<svg width="24" height="24" viewBox="0 0 24 24" fill="none" xmlns="http://www.w3.org/2000/svg">
<path d="M22.3125 2.25H1.6875C1.33952 2.25038 1.00591 2.38879 0.759847 2.63485C0.513789 2.88091 0.375385 3.21452 0.375 3.5625V17.4375C0.375385 17.7855 0.513789 18.1191 0.759847 18.3652C1.00591 18.6112 1.33952 18.7496 1.6875 18.75H9.2925L9.0675 19.875H7.5C7.40054 19.875 7.30516 19.9145 7.23483 19.9848C7.16451 20.0552 7.125 20.1505 7.125 20.25V21.375C7.125 21.4745 7.16451 21.5698 7.23483 21.6402C7.30516 21.7105 7.40054 21.75 7.5 21.75H16.5C16.5995 21.75 16.6948 21.7105 16.7652 21.6402C16.8355 21.5698 16.875 21.4745 16.875 21.375V20.25C16.875 20.1505 16.8355 20.0552 16.7652 19.9848C16.6948 19.9145 16.5995 19.875 16.5 19.875H14.9325L14.7075 18.75H22.3125C22.6605 18.7496 22.9941 18.6112 23.2402 18.3652C23.4862 18.1191 23.6246 17.7855 23.625 17.4375V3.5625C23.6246 3.21452 23.4862 2.88091 23.2402 2.63485C22.9941 2.38879 22.6605 2.25038 22.3125 2.25ZM16.125 20.625V21H7.875V20.625H16.125ZM9.8325 19.875L10.0575 18.75H13.9425L14.1675 19.875H9.8325ZM22.875 17.4375C22.8749 17.5866 22.8156 17.7296 22.7101 17.8351C22.6046 17.9406 22.4616 17.9999 22.3125 18H1.6875C1.53835 17.9999 1.39535 17.9406 1.28989 17.8351C1.18443 17.7296 1.12512 17.5866 1.125 17.4375V16.5H22.875V17.4375ZM22.875 15.75H1.125V3.5625C1.12512 3.41335 1.18443 3.27035 1.28989 3.16489C1.39535 3.05943 1.53835 3.00012 1.6875 3H22.3125C22.4616 3.00012 22.6046 3.05943 22.7101 3.16489C22.8156 3.27035 22.8749 3.41335 22.875 3.5625V15.75Z" fill="black"/>
<path d="M12.375 16.875H11.625C11.5255 16.875 11.4302 16.9145 11.3598 16.9848C11.2895 17.0552 11.25 17.1505 11.25 17.25C11.25 17.3495 11.2895 17.4448 11.3598 17.5152C11.4302 17.5855 11.5255 17.625 11.625 17.625H12.375C12.4745 17.625 12.5698 17.5855 12.6402 17.5152C12.7105 17.4448 12.75 17.3495 12.75 17.25C12.75 17.1505 12.7105 17.0552 12.6402 16.9848C12.5698 16.9145 12.4745 16.875 12.375 16.875Z" fill="black"/>
</svg>
