<svg width="24" height="24" viewBox="0 0 24 24" fill="none" xmlns="http://www.w3.org/2000/svg">
<mask id="mask0_499_7710" style="mask-type:luminance" maskUnits="userSpaceOnUse" x="0" y="0" width="24" height="24">
<path d="M0 7.05719e-05H23.9999V24H0V7.05719e-05Z" fill="white"/>
</mask>
<g mask="url(#mask0_499_7710)">
<path d="M16.4132 -20.4798L15.2934 -20.0319C14.4738 -19.7041 13.5468 -19.6589 12.6672 -19.6589C12.3713 -19.6589 12.0762 -19.6645 11.7639 -19.6705C11.4521 -19.6766 11.1299 -19.6828 10.8074 -19.6828H8.43331C6.56563 -19.6828 4.96808 -18.2872 4.7173 -16.4364L4.6739 -16.1162C4.38121 -15.9542 4.11099 -15.7545 3.87013 -15.5223C3.11756 -14.7969 2.70309 -13.8219 2.70309 -12.7769C2.70309 -11.441 3.40556 -10.2265 4.49877 -9.54219C4.58437 -8.79679 4.87654 -8.11344 5.31641 -7.55066C3.444 -7.22559 2.01562 -5.58895 2.01562 -3.62499V0.40625H21.9843V-3.62499C21.9843 -5.58895 20.5559 -7.22559 18.6836 -7.55066C19.1234 -8.11344 19.4156 -8.79679 19.5012 -9.54219C20.5944 -10.2265 21.2968 -11.441 21.2968 -12.7769C21.2968 -14.3712 20.3067 -15.7724 18.863 -16.3321L17.0265 -19.4414L16.4132 -20.4798ZM15.8157 -18.7262L17.9331 -15.1414C19.0463 -14.9303 19.8906 -13.9502 19.8906 -12.7769C19.8906 -11.6704 19.1399 -10.7359 18.1211 -10.4559V-9.99997C18.1211 -8.5784 16.9645 -7.42185 15.543 -7.42185H15.2031V-6.20311H18C19.4215 -6.20311 20.5781 -5.04656 20.5781 -3.62499V-0.999996H3.42187V-3.62499C3.42187 -5.04656 4.57841 -6.20311 5.99999 -6.20311H8.79687V-7.42185H8.45698C7.03541 -7.42185 5.87886 -8.5784 5.87886 -9.99997V-10.4559C4.86004 -10.7359 4.10934 -11.6704 4.10934 -12.7769C4.10934 -13.4365 4.37095 -14.0519 4.84598 -14.5098C5.16154 -14.8139 5.54343 -15.0213 5.95785 -15.1191L6.11085 -16.2476C6.26755 -17.4043 7.26603 -18.2765 8.43331 -18.2765H10.8074C11.4254 -18.2765 12.0484 -18.2526 12.6672 -18.2526C13.7474 -18.2526 14.8141 -18.3256 15.8157 -18.7262Z" fill="white"/>
</g>
<mask id="mask1_499_7710" style="mask-type:luminance" maskUnits="userSpaceOnUse" x="0" y="0" width="24" height="24">
<path d="M0 7.05719e-05H23.9999V24H0V7.05719e-05Z" fill="white"/>
</mask>
<g mask="url(#mask1_499_7710)">
<path d="M20.8984 14.3985C20.8984 19.3129 16.9144 23.2969 12 23.2969C7.09762 23.2969 3.13828 19.3684 3.10182 14.4662C3.08813 12.6306 3.63028 10.9225 4.56998 9.50006C4.77919 9.18337 5.99999 7.50005 5.99999 7.50005L6.82345 8.32354C7.03156 8.53164 7.28783 8.68514 7.5695 8.77042C7.85118 8.8557 8.14956 8.87012 8.43814 8.8124C9.27706 8.64464 9.87983 7.90622 9.87509 7.0507C9.87027 6.16875 9.99026 5.01948 10.5 4.00009C11.5694 1.86114 13.5 1.0001 13.5 1.0001C13.5 1.0001 14.4255 4.50001 18.4999 9.00004C19.7648 10.397 20.8984 12.3685 20.8984 14.3985Z" fill="#27C840"/>
<path d="M14.7714 16.7013C14.7714 16.0833 14.5684 15.8988 14.3655 15.8988C14.1626 15.8988 13.9597 16.0833 13.9597 16.7013C13.9597 17.3193 14.1626 17.5038 14.3655 17.5038C14.5684 17.5038 14.7714 17.3193 14.7714 16.7013ZM12.6498 16.7013C12.6498 15.5576 13.3877 14.9026 14.3655 14.9026C15.3432 14.9026 16.0811 15.5576 16.0811 16.7013C16.0811 17.8543 15.3432 18.5 14.3655 18.5C13.3877 18.5 12.6498 17.8543 12.6498 16.7013ZM10.0395 13.6574C10.0395 13.0394 9.83656 12.855 9.63364 12.855C9.43071 12.855 9.22779 13.0394 9.22779 13.6574C9.22779 14.2754 9.43071 14.4599 9.63364 14.4599C9.83656 14.4599 10.0395 14.2754 10.0395 13.6574ZM13.4247 11.951H14.9835L10.5745 18.4078H9.01564L13.4247 11.951ZM7.91797 13.6574C7.91797 12.5137 8.65592 11.8588 9.63364 11.8588C10.6114 11.8588 11.3493 12.5137 11.3493 13.6574C11.3493 14.8104 10.6114 15.4561 9.63364 15.4561C8.65592 15.4561 7.91797 14.8104 7.91797 13.6574Z" fill="white"/>
</g>
<path d="M15.332 24H15.5951L15.5255 23.826L15.332 24Z" fill="#27C840"/>
<path d="M14.307 23.9768L14.2812 24H16.353L15.8048 22.6297L14.307 23.9768Z" fill="white"/>
</svg>
