<svg width="24" height="24" viewBox="0 0 24 24" fill="none" xmlns="http://www.w3.org/2000/svg">
<path fill-rule="evenodd" clip-rule="evenodd" d="M22.0993 6.42868C19.9733 8.55468 14.9833 13.5437 13.7663 14.7567C13.5057 15.0169 13.1956 15.2223 12.8543 15.3607C11.8783 15.7657 9.49727 16.6997 8.79727 16.7467C8.59092 16.7606 8.384 16.7301 8.19038 16.6574C7.99676 16.5848 7.82093 16.4715 7.6747 16.3253C7.52846 16.179 7.41519 16.0032 7.34251 15.8096C7.26982 15.616 7.23939 15.409 7.25327 15.2027C7.30027 14.5027 8.23427 12.1237 8.63227 11.1517C8.77127 10.8067 8.97827 10.4937 9.24127 10.2317L17.5713 1.90068C17.9749 1.49777 18.5219 1.27148 19.0923 1.27148C19.6626 1.27148 20.2096 1.49777 20.6133 1.90068L22.0993 3.38668C22.5022 3.79034 22.7285 4.33736 22.7285 4.90768C22.7285 5.47801 22.5022 6.02503 22.0993 6.42868ZM8.75627 15.2437C9.44027 15.1577 11.4393 14.3237 12.2793 13.9747C12.4389 13.9119 12.5839 13.817 12.7053 13.6957L12.7063 13.6947C15.4855 10.9209 18.2628 8.14525 21.0383 5.36768C21.0987 5.30731 21.1467 5.23561 21.1794 5.15668C21.2122 5.07775 21.229 4.99313 21.229 4.90768C21.229 4.82223 21.2122 4.73762 21.1794 4.65869C21.1467 4.57976 21.0987 4.50806 21.0383 4.44768L19.5523 2.96168C19.4919 2.90121 19.4202 2.85324 19.3413 2.8205C19.2623 2.78777 19.1777 2.77092 19.0923 2.77092C19.0068 2.77092 18.9222 2.78777 18.8433 2.8205C18.7643 2.85324 18.6926 2.90121 18.6323 2.96168L10.3013 11.2927C10.1813 11.412 10.087 11.5546 10.0243 11.7117L10.0223 11.7157C9.67727 12.5577 8.84227 14.5587 8.75627 15.2437Z" fill="#0088FF"/>
<path fill-rule="evenodd" clip-rule="evenodd" d="M20.1175 7.34885C20.1872 7.41852 20.2425 7.50122 20.2802 7.59224C20.3179 7.68327 20.3373 7.78083 20.3373 7.87935C20.3373 7.97787 20.3179 8.07543 20.2802 8.16645C20.2425 8.25748 20.1872 8.34018 20.1175 8.40985C20.0479 8.47952 19.9652 8.53478 19.8741 8.57248C19.7831 8.61018 19.6856 8.62959 19.587 8.62959C19.4885 8.62959 19.391 8.61018 19.2999 8.57248C19.2089 8.53478 19.1262 8.47952 19.0565 8.40985L15.5895 4.94285C15.4488 4.80215 15.3698 4.61133 15.3698 4.41235C15.3698 4.21337 15.4488 4.02255 15.5895 3.88185C15.7302 3.74115 15.9211 3.66211 16.12 3.66211C16.319 3.66211 16.5098 3.74115 16.6505 3.88185L20.1175 7.34885ZM13.9965 13.4698C14.0661 13.5395 14.1213 13.6221 14.159 13.713C14.1967 13.804 14.2161 13.9014 14.2161 13.9998C14.2161 14.0983 14.1967 14.1957 14.159 14.2867C14.1213 14.3776 14.0661 14.4602 13.9965 14.5298C13.9269 14.5995 13.8443 14.6547 13.7534 14.6923C13.6624 14.73 13.565 14.7494 13.4665 14.7494C13.3681 14.7494 13.2706 14.73 13.1797 14.6923C13.0888 14.6547 13.0061 14.5995 12.9365 14.5298L9.46953 11.0628C9.39993 10.9932 9.34472 10.9106 9.30706 10.8197C9.26939 10.7287 9.25 10.6313 9.25 10.5328C9.25 10.4344 9.26939 10.337 9.30706 10.246C9.34472 10.1551 9.39993 10.0725 9.46953 10.0028C9.53913 9.93325 9.62176 9.87804 9.7127 9.84037C9.80364 9.8027 9.9011 9.78332 9.99953 9.78332C10.098 9.78332 10.1954 9.8027 10.2864 9.84037C10.3773 9.87804 10.4599 9.93325 10.5295 10.0028L13.9965 13.4698Z" fill="#0088FF"/>
<path fill-rule="evenodd" clip-rule="evenodd" d="M8.5 3.25C8.69891 3.25 8.88968 3.32902 9.03033 3.46967C9.17098 3.61032 9.25 3.80109 9.25 4C9.25 4.19891 9.17098 4.38968 9.03033 4.53033C8.88968 4.67098 8.69891 4.75 8.5 4.75H5C4.40326 4.75 3.83097 4.98705 3.40901 5.40901C2.98705 5.83097 2.75 6.40326 2.75 7V19C2.75 19.5967 2.98705 20.169 3.40901 20.591C3.83097 21.0129 4.40326 21.25 5 21.25H18C18.5967 21.25 19.169 21.0129 19.591 20.591C20.0129 20.169 20.25 19.5967 20.25 19V15.5C20.25 15.3011 20.329 15.1103 20.4697 14.9697C20.6103 14.829 20.8011 14.75 21 14.75C21.1989 14.75 21.3897 14.829 21.5303 14.9697C21.671 15.1103 21.75 15.3011 21.75 15.5V19C21.7495 19.9944 21.3542 20.9479 20.6511 21.6511C19.9479 22.3542 18.9944 22.7495 18 22.75H5C4.0056 22.7495 3.05208 22.3542 2.34893 21.6511C1.64579 20.9479 1.25053 19.9944 1.25 19V7C1.25 6.00544 1.64509 5.05161 2.34835 4.34835C3.05161 3.64509 4.00544 3.25 5 3.25H8.5Z" fill="#0088FF"/>
</svg>
