<svg width="24" height="24" viewBox="0 0 24 24" fill="none" xmlns="http://www.w3.org/2000/svg">
<g clip-path="url(#clip0_499_7760)">
<path d="M7.50891 16.1061H19.7958C19.8829 16.1061 19.9664 16.1407 20.028 16.2023C20.0895 16.2638 20.1241 16.3474 20.1241 16.4345C20.1241 16.5215 20.0895 16.6051 20.028 16.6666C19.9664 16.7282 19.8829 16.7628 19.7958 16.7628H7.50891C7.46579 16.7628 7.42309 16.7543 7.38325 16.7378C7.34341 16.7213 7.30721 16.6971 7.27672 16.6666C7.24623 16.6361 7.22204 16.5999 7.20554 16.5601C7.18904 16.5203 7.18055 16.4776 7.18055 16.4345C7.18055 16.3913 7.18904 16.3486 7.20554 16.3088C7.22204 16.269 7.24623 16.2328 7.27672 16.2023C7.30721 16.1718 7.34341 16.1476 7.38325 16.1311C7.42309 16.1146 7.46579 16.1061 7.50891 16.1061ZM19.7958 18.567H7.50891C7.42182 18.567 7.3383 18.6016 7.27672 18.6632C7.21514 18.7248 7.18055 18.8083 7.18055 18.8954C7.18055 18.9825 7.21514 19.066 7.27672 19.1276C7.3383 19.1892 7.42182 19.2238 7.50891 19.2238H19.7958C19.8829 19.2238 19.9664 19.1892 20.028 19.1276C20.0895 19.066 20.1241 18.9825 20.1241 18.8954C20.1241 18.8083 20.0895 18.7248 20.028 18.6632C19.9664 18.6016 19.8829 18.567 19.7958 18.567ZM5.35359 9.35352H4.35291V10.2836H5.35345C5.47679 10.2836 5.59508 10.2346 5.68229 10.1474C5.7695 10.0602 5.8185 9.9419 5.8185 9.81856C5.8185 9.69522 5.7695 9.57694 5.68229 9.48973C5.59508 9.40251 5.47679 9.35352 5.35345 9.35352H5.35359ZM19.7958 21.028H7.50891C7.46582 21.028 7.42315 21.0365 7.38334 21.0529C7.34353 21.0694 7.30736 21.0936 7.27689 21.1241C7.24642 21.1545 7.22225 21.1907 7.20576 21.2305C7.18927 21.2703 7.18078 21.313 7.18078 21.3561C7.18078 21.3992 7.18927 21.4419 7.20576 21.4817C7.22225 21.5215 7.24642 21.5576 7.27689 21.5881C7.30736 21.6186 7.34353 21.6428 7.38334 21.6592C7.42315 21.6757 7.46582 21.6842 7.50891 21.6842H19.7958C19.8828 21.6842 19.9663 21.6496 20.0278 21.5881C20.0893 21.5266 20.1239 21.4431 20.1239 21.3561C20.1239 21.2691 20.0893 21.1856 20.0278 21.1241C19.9663 21.0625 19.8828 21.028 19.7958 21.028ZM8.94244 11.138V10.0859C8.94204 9.89165 8.8646 9.70546 8.7271 9.56819C8.5896 9.43093 8.40327 9.35381 8.20898 9.35375H7.47548V11.8717H8.20898C8.40348 11.8715 8.58994 11.7941 8.72745 11.6566C8.86496 11.519 8.94228 11.3325 8.94244 11.138ZM22.5769 7.54625V22.4867C22.5761 23.0207 22.3635 23.5325 21.9858 23.9099C21.6081 24.2874 21.0961 24.4996 20.5622 24.5H6.74203C6.20813 24.4996 5.6962 24.2873 5.31859 23.9099C4.94097 23.5324 4.72851 23.0206 4.72781 22.4867V14.007H2.20031C2.01466 14.0068 1.83668 13.9329 1.7054 13.8016C1.57413 13.6703 1.50026 13.4924 1.5 13.3067V7.91844C1.50017 7.73276 1.57401 7.55473 1.70531 7.42343C1.83661 7.29214 2.01463 7.2183 2.20031 7.21813H4.72781V2.51422C4.7284 1.98019 4.94079 1.46821 5.31841 1.0906C5.69602 0.712982 6.20801 0.500583 6.74203 0.5L15.5306 0.5C15.6176 0.500178 15.701 0.534716 15.7627 0.596094L22.4808 7.31422C22.5422 7.37586 22.5767 7.45926 22.5769 7.54625ZM5.35345 10.94C5.50073 10.94 5.64656 10.911 5.78263 10.8546C5.91869 10.7983 6.04232 10.7157 6.14646 10.6115C6.2506 10.5074 6.33321 10.3838 6.38957 10.2477C6.44593 10.1116 6.47494 9.96579 6.47494 9.81852C6.47494 9.67124 6.44593 9.52541 6.38957 9.38934C6.33321 9.25328 6.2506 9.12965 6.14646 9.02551C6.04232 8.92137 5.91869 8.83876 5.78263 8.7824C5.64656 8.72604 5.50073 8.69703 5.35345 8.69703H4.02469C3.93766 8.69703 3.8542 8.7316 3.79267 8.79314C3.73113 8.85467 3.69656 8.93813 3.69656 9.02516V12.1996C3.69656 12.2866 3.73113 12.3701 3.79267 12.4316C3.8542 12.4931 3.93766 12.5277 4.02469 12.5277C4.11171 12.5277 4.19517 12.4931 4.25671 12.4316C4.31824 12.3701 4.35281 12.2866 4.35281 12.1996V10.94L5.35345 10.94ZM21.9206 7.87484H16.4672C16.1318 7.87442 15.8102 7.74099 15.5731 7.50382C15.3359 7.26665 15.2025 6.9451 15.202 6.60969V1.15625H6.74203C6.38202 1.15672 6.03689 1.29994 5.78232 1.55451C5.52776 1.80908 5.38453 2.15421 5.38406 2.51422V7.21813H14.2177C14.4033 7.2183 14.5814 7.29214 14.7127 7.42343C14.844 7.55473 14.9178 7.73276 14.918 7.91844V13.3067C14.9177 13.4924 14.8438 13.6703 14.7126 13.8016C14.5813 13.9329 14.4033 14.0068 14.2177 14.007H5.38406V22.4867C5.38468 22.8466 5.52798 23.1915 5.78254 23.4459C6.03711 23.7003 6.38215 23.8434 6.74203 23.8438H20.5622C20.9221 23.8435 21.2673 23.7005 21.522 23.4461C21.7766 23.1917 21.92 22.8467 21.9206 22.4867V7.87484ZM7.14727 12.5281H8.20898C8.57747 12.5277 8.93074 12.3811 9.19129 12.1206C9.45184 11.86 9.59841 11.5067 9.59883 11.1382V10.0859C9.59826 9.71762 9.45161 9.36456 9.19105 9.10423C8.93049 8.8439 8.57731 8.69756 8.20898 8.69731H7.14727C7.06024 8.69731 6.97678 8.73188 6.91525 8.79342C6.85371 8.85495 6.81914 8.93841 6.81914 9.02544V12.1999C6.81912 12.243 6.8276 12.2856 6.84408 12.3255C6.86056 12.3653 6.88473 12.4015 6.9152 12.432C6.94567 12.4625 6.98185 12.4866 7.02167 12.5031C7.06148 12.5196 7.10416 12.5281 7.14727 12.5281ZM10.5994 10.2836V9.35352H12.3932C12.4802 9.35352 12.5637 9.31895 12.6252 9.25741C12.6867 9.19588 12.7213 9.11241 12.7213 9.02539C12.7213 8.93837 12.6867 8.85491 12.6252 8.79337C12.5637 8.73184 12.4802 8.69727 12.3932 8.69727H10.2712C10.1842 8.69727 10.1008 8.73184 10.0392 8.79337C9.9777 8.85491 9.94312 8.93837 9.94312 9.02539V12.1998C9.94312 12.2429 9.95161 12.2856 9.9681 12.3254C9.98459 12.3652 10.0088 12.4014 10.0392 12.4318C10.0697 12.4623 10.1059 12.4865 10.1457 12.503C10.1855 12.5195 10.2282 12.5279 10.2712 12.5279C10.3143 12.5279 10.357 12.5195 10.3968 12.503C10.4366 12.4865 10.4728 12.4623 10.5033 12.4318C10.5337 12.4014 10.5579 12.3652 10.5744 12.3254C10.5909 12.2856 10.5994 12.2429 10.5994 12.1998V10.94H12.0783C12.1653 10.94 12.2488 10.9055 12.3103 10.8439C12.3718 10.7824 12.4064 10.6989 12.4064 10.6119C12.4064 10.5249 12.3718 10.4414 12.3103 10.3799C12.2488 10.3184 12.1653 10.2838 12.0783 10.2838L10.5994 10.2836Z" fill="#F94852"/>
</g>
<defs>
<clipPath id="clip0_499_7760">
<rect width="24" height="24" fill="white"/>
</clipPath>
</defs>
</svg>
