<svg width="24" height="24" viewBox="0 0 24 24" fill="none" xmlns="http://www.w3.org/2000/svg">
<path d="M9.87305 13.9707L9.74316 13.8271L2.79004 6.18066C2.5819 5.95092 2.44496 5.66543 2.39551 5.35938C2.34605 5.05306 2.38624 4.73886 2.51172 4.45508C2.63733 4.17116 2.8434 3.92926 3.10352 3.75977C3.331 3.61162 3.59183 3.52368 3.86133 3.50391L3.97754 3.5H20.0195C20.3298 3.50031 20.6336 3.59038 20.8936 3.75977C21.1537 3.92926 21.3588 4.17116 21.4844 4.45508C21.6099 4.7389 21.651 5.053 21.6016 5.35938C21.5521 5.66556 21.4143 5.95087 21.2061 6.18066L14.2529 13.8271L14.123 13.9707V18.375L14.1172 18.4297C14.1131 18.4479 14.1067 18.4655 14.0986 18.4824C14.0824 18.5162 14.0585 18.5459 14.0293 18.5693L10.2793 21.5693V21.5703C10.2573 21.588 10.2323 21.6011 10.2061 21.6104L10.123 21.625H10.1201C10.0849 21.6252 10.0502 21.6171 10.0186 21.6016L10.0146 21.5996L9.95703 21.5605C9.93968 21.545 9.92363 21.5277 9.91113 21.5078C9.88621 21.4681 9.87311 21.4219 9.87305 21.375V13.9707Z" stroke="#1773CF"/>
</svg>
