<svg width="44" height="44" viewBox="0 0 44 44" fill="none" xmlns="http://www.w3.org/2000/svg">
<rect width="44" height="44" rx="8" fill="white"/>
<path d="M19.873 23.9707L19.7432 23.8271L12.79 16.1807C12.5819 15.9509 12.445 15.6654 12.3955 15.3594C12.3461 15.0531 12.3862 14.7389 12.5117 14.4551C12.6373 14.1712 12.8434 13.9293 13.1035 13.7598C13.331 13.6116 13.5918 13.5237 13.8613 13.5039L13.9775 13.5H30.0195C30.3298 13.5003 30.6336 13.5904 30.8936 13.7598C31.1537 13.9293 31.3588 14.1712 31.4844 14.4551C31.6099 14.7389 31.651 15.053 31.6016 15.3594C31.5521 15.6656 31.4143 15.9509 31.2061 16.1807L24.2529 23.8271L24.123 23.9707V28.375L24.1172 28.4297C24.1131 28.4479 24.1067 28.4655 24.0986 28.4824C24.0824 28.5162 24.0585 28.5459 24.0293 28.5693L20.2793 31.5693V31.5703C20.2573 31.588 20.2323 31.6011 20.2061 31.6104L20.123 31.625H20.1201C20.0849 31.6252 20.0502 31.6171 20.0186 31.6016L20.0146 31.5996L19.957 31.5605C19.9397 31.545 19.9236 31.5277 19.9111 31.5078C19.8862 31.4681 19.8731 31.4219 19.873 31.375V23.9707Z" stroke="#1773CF"/>
</svg>
