<svg width="16" height="16" viewBox="0 0 16 16" fill="none" xmlns="http://www.w3.org/2000/svg">
<path d="M1.71596 12C1.54453 12 1.43025 11.9429 1.31596 11.8286C1.08739 11.6 1.08739 11.2571 1.31596 11.0286L4.74453 7.6C4.9731 7.37143 5.31596 7.37143 5.54453 7.6L8.00167 10.0571L12.916 5.14286H10.8588C10.516 5.14286 10.2874 4.91429 10.2874 4.57143C10.2874 4.22857 10.516 4 10.8588 4H14.2874C14.6302 4 14.8588 4.22857 14.8588 4.57143V8C14.8588 8.34286 14.6302 8.57143 14.2874 8.57143C13.9445 8.57143 13.716 8.34286 13.716 8V5.94286L8.40167 11.2571C8.1731 11.4857 7.83025 11.4857 7.60167 11.2571L5.14453 8.8L2.11596 11.8286C2.00167 11.9429 1.88739 12 1.71596 12Z" fill="#34C759"/>
</svg>
