<svg width="16" height="16" viewBox="0 0 16 16" fill="none" xmlns="http://www.w3.org/2000/svg">
<path d="M9.49042 8.18358C9.26642 7.95958 8.91975 7.96492 8.70108 8.18358L8.00242 8.88225L7.30375 8.18358C7.08508 7.96492 6.72242 7.96492 6.50375 8.18358C6.4011 8.29146 6.34385 8.43467 6.34385 8.58358C6.34385 8.73249 6.4011 8.87571 6.50375 8.98358L7.20242 9.68225L6.50908 10.3756C6.39708 10.4876 6.34375 10.6263 6.34375 10.7703C6.34375 10.9089 6.39708 11.0583 6.50908 11.1703C6.72775 11.3889 7.07975 11.3889 7.29842 11.1703L7.99708 10.4716L8.69575 11.1703C8.91442 11.3889 9.26642 11.3889 9.48508 11.1703C9.70908 10.9516 9.70908 10.5943 9.49042 10.3756L8.79175 9.67692L9.49042 8.97825C9.70908 8.75958 9.70908 8.40225 9.49042 8.18358Z" fill="#717171"/>
<path d="M13.1144 2.27734H12.9011V3.62134C12.9011 4.50134 12.1864 5.22134 11.3011 5.22134C10.4211 5.22134 9.70107 4.50134 9.70107 3.62134V2.27734H6.29841V3.62134C6.29841 4.50134 5.57841 5.22134 4.69841 5.22134C3.81307 5.22134 3.09841 4.50134 3.09841 3.62134V2.27734H2.88507C1.88241 2.27734 1.06641 3.09334 1.06641 4.09601V12.7147C1.06641 13.7173 1.88241 14.5333 2.88507 14.5333H13.1144C14.1171 14.5333 14.9331 13.7173 14.9331 12.7147V4.09601C14.9331 3.09334 14.1171 2.27734 13.1144 2.27734ZM13.1144 13.4667H2.88507C2.46907 13.4667 2.13307 13.1307 2.13307 12.7147V6.29334H13.8664V12.7147C13.8664 13.1307 13.5304 13.4667 13.1144 13.4667Z" fill="#717171"/>
<path d="M4.6974 4.1532C4.83884 4.1532 4.9745 4.09701 5.07452 3.99699C5.17454 3.89697 5.23073 3.76131 5.23073 3.61986V2.00013C5.23073 1.85868 5.17454 1.72303 5.07452 1.62301C4.9745 1.52299 4.83884 1.4668 4.6974 1.4668C4.55595 1.4668 4.42029 1.52299 4.32027 1.62301C4.22025 1.72303 4.16406 1.85868 4.16406 2.00013V3.61933C4.16406 3.76078 4.22025 3.89643 4.32027 3.99645C4.42029 4.09647 4.55595 4.15266 4.6974 4.15266V4.1532ZM11.3027 4.1532C11.4442 4.1532 11.5798 4.09701 11.6799 3.99699C11.7799 3.89697 11.8361 3.76131 11.8361 3.61986V2.00013C11.8361 1.85868 11.7799 1.72303 11.6799 1.62301C11.5798 1.52299 11.4442 1.4668 11.3027 1.4668C11.1613 1.4668 11.0256 1.52299 10.9256 1.62301C10.8256 1.72303 10.7694 1.85868 10.7694 2.00013V3.61933C10.7694 3.76078 10.8256 3.89643 10.9256 3.99645C11.0256 4.09647 11.1613 4.15266 11.3027 4.15266V4.1532Z" fill="#717171"/>
</svg>
