<svg width="24" height="24" viewBox="0 0 24 24" fill="none" xmlns="http://www.w3.org/2000/svg">
<g clip-path="url(#clip0_460_339)">
<path d="M1.75 0.5H9.25C9.93902 0.500034 10.5 1.06123 10.5 1.75V6.25C10.5 6.93897 9.93897 7.49997 9.25 7.5H1.75C1.06123 7.5 0.500034 6.93902 0.5 6.25V1.75C0.5 1.06117 1.06117 0.5 1.75 0.5Z" fill="#2196F3" fill-opacity="0.22" stroke="#1773CF"/>
<path d="M1.75 10.5H9.25C9.93894 10.5 10.4999 11.0611 10.5 11.75V22.25C10.5 22.9388 9.93902 23.5 9.25 23.5H1.75C1.06117 23.5 0.5 22.9388 0.5 22.25V11.75C0.500068 11.061 1.06125 10.5 1.75 10.5Z" fill="#1773CF" stroke="#1773CF"/>
<path d="M14.75 16.5H22.25C22.9387 16.5 23.4999 17.061 23.5 17.75V22.25C23.5 22.9388 22.9388 23.5 22.25 23.5H14.75C14.061 23.4999 13.5 22.9387 13.5 22.25V17.75C13.5001 17.1043 13.993 16.5712 14.6221 16.5068L14.75 16.5Z" fill="#2196F3" fill-opacity="0.22" stroke="#1773CF"/>
<path d="M14.75 0.5H22.25C22.9388 0.5 23.5 1.06117 23.5 1.75V12.25C23.5 12.939 22.9388 13.5 22.25 13.5H14.75C14.0611 13.4999 13.5 12.9389 13.5 12.25V1.75C13.5 1.10443 13.9929 0.571237 14.6221 0.506836L14.75 0.5Z" fill="#1773CF" stroke="#1773CF"/>
</g>
<defs>
<clipPath id="clip0_460_339">
<rect width="24" height="24" fill="white"/>
</clipPath>
</defs>
</svg>
