<svg width="18" height="14" viewBox="0 0 18 14" fill="none" xmlns="http://www.w3.org/2000/svg">
<path d="M7.99934 4.75074C7.99934 4.55183 8.07836 4.36106 8.21901 4.22041C8.35966 4.07976 8.55043 4.00074 8.74934 4.00074H14.9383L12.2183 1.28074C12.1487 1.21107 12.0934 1.12837 12.0557 1.03734C12.018 0.946322 11.9986 0.848763 11.9986 0.75024C11.9986 0.651717 12.018 0.55416 12.0557 0.463136C12.0934 0.372113 12.1487 0.289407 12.2183 0.21974C12.288 0.150074 12.3707 0.094812 12.4617 0.0571089C12.5528 0.0194058 12.6503 -7.34054e-10 12.7488 0C12.8474 7.34053e-10 12.9449 0.0194058 13.0359 0.0571089C13.127 0.094812 13.2097 0.150074 13.2793 0.21974L17.2793 4.21974C17.3841 4.32463 17.4554 4.45821 17.4843 4.6036C17.5132 4.749 17.4983 4.8997 17.4416 5.03666C17.3849 5.17363 17.2889 5.29071 17.1657 5.37313C17.0425 5.45555 16.8976 5.49961 16.7493 5.49974H8.74934C8.55043 5.49974 8.35966 5.42072 8.21901 5.28007C8.07836 5.13942 7.99934 4.94865 7.99934 4.74974V4.75074ZM9.74934 8.00074H0.749341C0.601101 8.00087 0.456224 8.04493 0.333008 8.12735C0.209793 8.20977 0.113765 8.32685 0.0570537 8.46382C0.000342332 8.60078 -0.014509 8.75148 0.0143753 8.89688C0.0432597 9.04228 0.114584 9.17585 0.219341 9.28074L4.21934 13.2807C4.28884 13.3505 4.37143 13.4059 4.46238 13.4437C4.55334 13.4815 4.65085 13.5009 4.74934 13.5009C4.84783 13.5009 4.94534 13.4815 5.0363 13.4437C5.12725 13.4059 5.20984 13.3505 5.27934 13.2807C5.34904 13.2111 5.40432 13.1284 5.44204 13.0374C5.47976 12.9463 5.49918 12.8488 5.49918 12.7502C5.49918 12.6517 5.47976 12.5541 5.44204 12.4631C5.40432 12.3721 5.34904 12.2894 5.27934 12.2197L2.55934 9.49974H9.74834C9.94725 9.49974 10.138 9.42072 10.2787 9.28007C10.4193 9.13942 10.4983 8.94865 10.4983 8.74974C10.4983 8.55083 10.4193 8.36006 10.2787 8.21941C10.138 8.07876 9.94725 7.99974 9.74834 7.99974L9.74934 8.00074Z" fill="white"/>
</svg>
