<svg width="24" height="24" viewBox="0 0 24 24" fill="none" xmlns="http://www.w3.org/2000/svg">
<path d="M14.4243 21.7726C14.2257 21.8221 14.0256 21.8655 13.8243 21.9027C13.3008 22 12.9547 22.5035 13.0515 23.0275C13.0972 23.2753 13.2383 23.4953 13.4445 23.6402C13.5495 23.7144 13.6684 23.7668 13.794 23.7942C13.9196 23.8217 14.0494 23.8237 14.1758 23.8001C14.4156 23.7556 14.6539 23.7039 14.8906 23.6449C15.4075 23.5163 15.7225 22.9925 15.5935 22.4758C15.4649 21.9586 14.9416 21.6439 14.4243 21.7726ZM21.5591 8.84055C21.6238 9.03657 21.7499 9.20656 21.9187 9.3254C22.1603 9.4956 22.4765 9.55286 22.7783 9.45309C23.2842 9.28511 23.5583 8.73959 23.3909 8.23395C23.3142 8.00249 23.2305 7.77342 23.1399 7.54707C22.942 7.05231 22.3808 6.81144 21.8858 7.00934C21.3913 7.20714 21.1503 7.7685 21.3484 8.26341C21.4245 8.4536 21.4947 8.64607 21.5591 8.84055ZM17.5594 20.3951C17.3884 20.5081 17.2141 20.6158 17.0366 20.7181C16.5749 20.9844 16.4168 21.5746 16.683 22.0361C16.7527 22.1573 16.8481 22.2619 16.9624 22.3426C17.26 22.552 17.6642 22.5834 18.0008 22.3895C18.212 22.2677 18.4196 22.1395 18.623 22.0051C19.0674 21.7115 19.1898 21.1128 18.896 20.6682C18.6023 20.2235 18.004 20.1013 17.5594 20.3951ZM23.9908 11.5352C23.9698 11.0027 23.5213 10.5882 22.9886 10.609C22.4566 10.63 22.0418 11.0787 22.0627 11.611C22.0707 11.8145 22.0728 12.0211 22.0681 12.2244C22.0606 12.5584 22.2239 12.8561 22.4777 13.035C22.6342 13.1453 22.8201 13.2064 23.0115 13.2104C23.544 13.2223 23.9853 12.7999 23.9971 12.2671C24.0024 12.0242 24.0004 11.778 23.9908 11.5352ZM21.4016 17.857C20.9746 17.5366 20.3705 17.6236 20.0507 18.0499C19.9277 18.2136 19.7998 18.3736 19.6671 18.5295C19.322 18.935 19.3707 19.5441 19.7762 19.8895C19.7994 19.9091 19.8227 19.9271 19.847 19.9441C20.2501 20.2283 20.8104 20.163 21.1363 19.7805C21.2947 19.5943 21.4474 19.4032 21.5942 19.2077C21.914 18.7815 21.8274 18.1769 21.4016 17.857ZM22.8198 14.3693C22.3114 14.2099 21.77 14.4929 21.6107 15.0014C21.5493 15.1969 21.4821 15.3905 21.4091 15.5819C21.249 16.0027 21.4024 16.4657 21.7543 16.7138C21.8202 16.7602 21.8917 16.7982 21.9672 16.8267C22.465 17.0167 23.0224 16.7669 23.2121 16.2689C23.2988 16.0412 23.3787 15.811 23.4518 15.5786C23.611 15.07 23.3282 14.5287 22.8198 14.3693ZM10.2149 21.9113C9.35921 21.7583 8.52724 21.4939 7.74019 21.1249C7.7309 21.12 7.72259 21.1145 7.71284 21.1101C7.52738 21.0229 7.3445 20.9303 7.16443 20.8324C7.16382 20.8317 7.16268 20.8312 7.1617 20.8308C6.83097 20.6486 6.51052 20.4483 6.2018 20.2309C1.66326 17.0338 0.572018 10.7404 3.7693 6.20189C4.46454 5.21537 5.30588 4.39235 6.24385 3.74003C6.25541 3.73199 6.26696 3.72399 6.27842 3.71589C9.58368 1.43847 14.0717 1.28499 17.5814 3.62525L16.8276 4.71438C16.618 5.01752 16.7469 5.23844 17.1138 5.20542L20.3881 4.91228C20.7554 4.87926 20.9751 4.56151 20.8763 4.20678L19.9971 1.0388C19.8986 0.683646 19.6466 0.641135 19.4368 0.944231L18.6813 2.03594C16.1057 0.306982 13.0165 -0.352295 9.95028 0.179398C9.64335 0.232654 9.33859 0.297707 9.03666 0.374411C9.03434 0.374824 9.03248 0.375082 9.03063 0.375495C9.01902 0.378332 9.00725 0.382098 8.99596 0.385245C6.35193 1.06423 4.04505 2.60633 2.39895 4.80657C2.38507 4.82303 2.37078 4.83912 2.35768 4.85703C2.30268 4.93122 2.24859 5.00608 2.19542 5.0816C2.10809 5.20563 2.02316 5.33133 1.94067 5.45862C1.9304 5.4739 1.92256 5.48942 1.91358 5.50485C0.5552 7.6098 -0.100002 10.0433 0.0123622 12.5208C0.0126202 12.529 0.0121558 12.5372 0.0123622 12.5455C0.023511 12.789 0.0422303 13.0321 0.0684929 13.2745C0.0698858 13.29 0.0733424 13.3048 0.0759736 13.3204C0.102798 13.5646 0.137174 13.808 0.179052 14.0501C0.609525 16.5336 1.78105 18.7684 3.53652 20.5072C3.5406 20.5113 3.54483 20.5157 3.54896 20.52C3.5504 20.5216 3.552 20.5224 3.55339 20.5239C4.02953 20.9936 4.54363 21.4232 5.09044 21.8084C6.53601 22.827 8.14569 23.5003 9.87439 23.8105C10.3989 23.9048 10.9 23.5556 10.9941 23.0314C11.0881 22.5067 10.7393 22.0053 10.2149 21.9113Z" fill="white"/>
</svg>
