<svg width="24" height="24" viewBox="0 0 24 24" fill="none" xmlns="http://www.w3.org/2000/svg">
<path fill-rule="evenodd" clip-rule="evenodd" d="M11.9922 0.578126C18.3155 0.575876 23.423 5.68113 23.423 11.9999C23.423 18.3209 18.3147 23.4254 11.9922 23.4231C5.67424 23.4216 0.56224 18.3021 0.57424 11.9886C0.58699 5.67213 5.68249 0.578876 11.9922 0.578126ZM21.938 12.0036C21.9417 6.52638 17.4965 2.07213 12.02 2.06238C6.52849 2.05263 2.07499 6.49038 2.05924 11.9849C2.04499 17.4666 6.50449 21.9359 11.9892 21.9381C17.4815 21.9411 21.935 17.4944 21.938 12.0036Z" fill="black"/>
<path fill-rule="evenodd" clip-rule="evenodd" d="M13.4223 6.85352C13.8228 6.88502 14.0628 7.02077 14.1873 7.31252C14.3096 7.60277 14.2653 7.87802 14.0508 8.10977C13.7868 8.39252 13.5108 8.66327 13.2423 8.93927C12.3667 9.83471 11.4917 10.7307 10.6173 11.6273C10.5408 11.7053 10.4471 11.7773 10.4081 11.871C10.3722 11.9654 10.3719 12.0697 10.4073 12.1643C10.4463 12.2588 10.5401 12.3338 10.6158 12.4103C11.7423 13.5675 12.8696 14.7248 13.9998 15.879C14.2271 16.1108 14.3133 16.3778 14.2083 16.6838C14.1146 16.9613 13.9083 17.1278 13.6158 17.1743C13.5047 17.195 13.3903 17.1877 13.2827 17.153C13.1752 17.1183 13.078 17.0573 13.0001 16.9755C11.7678 15.7148 10.5243 14.4645 9.31531 13.1835C8.67256 12.5025 8.68456 11.5088 9.33256 10.8285C10.5407 9.56701 11.762 8.31819 12.9963 7.08227C13.1231 6.95627 13.3241 6.90452 13.4223 6.85352Z" fill="black"/>
</svg>
