<svg width="24" height="24" viewBox="0 0 24 24" fill="none" xmlns="http://www.w3.org/2000/svg">
<g clip-path="url(#clip0_576_7600)">
<path d="M14.4243 21.8605C14.2257 21.91 14.0256 21.9534 13.8243 21.9905C13.3008 22.0879 12.9547 22.5914 13.0515 23.1154C13.0972 23.3632 13.2383 23.5832 13.4445 23.7281C13.5495 23.8023 13.6684 23.8547 13.794 23.8821C13.9196 23.9096 14.0494 23.9116 14.1758 23.888C14.4156 23.8435 14.6539 23.7918 14.8906 23.7328C15.4075 23.6041 15.7225 23.0804 15.5935 22.5637C15.4649 22.0465 14.9416 21.7318 14.4243 21.8605ZM21.5591 8.92844C21.6238 9.12446 21.7499 9.29445 21.9187 9.41329C22.1603 9.58349 22.4765 9.64075 22.7783 9.54098C23.2842 9.373 23.5583 8.82748 23.3909 8.32184C23.3142 8.09038 23.2305 7.86131 23.1399 7.63496C22.942 7.1402 22.3808 6.89933 21.8858 7.09723C21.3913 7.29503 21.1503 7.85639 21.3484 8.3513C21.4245 8.54149 21.4947 8.73396 21.5591 8.92844ZM17.5594 20.483C17.3884 20.596 17.2141 20.7037 17.0366 20.806C16.5749 21.0723 16.4168 21.6625 16.683 22.124C16.7527 22.2452 16.8481 22.3498 16.9624 22.4305C17.26 22.6399 17.6642 22.6713 18.0008 22.4774C18.212 22.3556 18.4196 22.2274 18.623 22.0929C19.0674 21.7993 19.1898 21.2007 18.896 20.7561C18.6023 20.3114 18.004 20.1892 17.5594 20.483ZM23.9908 11.6231C23.9698 11.0906 23.5213 10.6761 22.9886 10.6969C22.4566 10.7179 22.0418 11.1666 22.0627 11.6989C22.0707 11.9024 22.0728 12.109 22.0681 12.3123C22.0606 12.6463 22.2239 12.944 22.4777 13.1229C22.6342 13.2332 22.8201 13.2943 23.0115 13.2983C23.544 13.3101 23.9853 12.8878 23.9971 12.355C24.0024 12.1121 24.0004 11.8659 23.9908 11.6231ZM21.4016 17.9449C20.9746 17.6245 20.3705 17.7115 20.0507 18.1377C19.9277 18.3015 19.7998 18.4615 19.6671 18.6174C19.322 19.0229 19.3707 19.632 19.7762 19.9774C19.7994 19.997 19.8227 20.015 19.847 20.0319C20.2501 20.3162 20.8104 20.2508 21.1363 19.8684C21.2947 19.6821 21.4474 19.4911 21.5942 19.2956C21.914 18.8694 21.8274 18.2648 21.4016 17.9449ZM22.8198 14.4572C22.3114 14.2978 21.77 14.5808 21.6107 15.0892C21.5493 15.2847 21.4821 15.4783 21.4091 15.6698C21.249 16.0906 21.4024 16.5535 21.7543 16.8016C21.8202 16.8481 21.8917 16.886 21.9672 16.9146C22.465 17.1046 23.0224 16.8548 23.2121 16.3568C23.2988 16.1291 23.3787 15.8989 23.4518 15.6664C23.611 15.1579 23.3282 14.6166 22.8198 14.4572ZM10.2149 21.9992C9.35921 21.8461 8.52724 21.5818 7.74019 21.2128C7.7309 21.2079 7.72259 21.2024 7.71284 21.198C7.52738 21.1108 7.3445 21.0182 7.16443 20.9203C7.16382 20.9196 7.16268 20.9191 7.1617 20.9187C6.83097 20.7365 6.51052 20.5362 6.2018 20.3188C1.66326 17.1217 0.572018 10.8283 3.7693 6.28978C4.46454 5.30327 5.30588 4.48024 6.24385 3.82793C6.25541 3.81988 6.26696 3.81188 6.27842 3.80378C9.58368 1.52636 14.0717 1.37288 17.5814 3.71314L16.8276 4.80227C16.618 5.10541 16.7469 5.32633 17.1138 5.29331L20.3881 5.00017C20.7554 4.96715 20.9751 4.6494 20.8763 4.29467L19.9971 1.12669C19.8986 0.771537 19.6466 0.729026 19.4368 1.03212L18.6813 2.12383C16.1057 0.394873 13.0165 -0.264405 9.95028 0.267289C9.64335 0.320545 9.33859 0.385597 9.03666 0.462302C9.03434 0.462715 9.03248 0.462973 9.03063 0.463385C9.01902 0.466223 9.00725 0.469989 8.99596 0.473136C6.35193 1.15212 4.04505 2.69422 2.39895 4.89446C2.38507 4.91092 2.37078 4.92701 2.35768 4.94492C2.30268 5.01911 2.24859 5.09398 2.19542 5.16949C2.10809 5.29352 2.02316 5.41922 1.94067 5.54652C1.9304 5.56179 1.92256 5.57731 1.91358 5.59274C0.5552 7.69769 -0.100002 10.1312 0.0123622 12.6087C0.0126202 12.6169 0.0121558 12.6251 0.0123622 12.6334C0.023511 12.8769 0.0422303 13.12 0.0684929 13.3624C0.0698858 13.3779 0.0733424 13.3927 0.0759736 13.4083C0.102798 13.6525 0.137174 13.8959 0.179052 14.138C0.609525 16.6215 1.78105 18.8562 3.53652 20.5951C3.5406 20.5992 3.54483 20.6036 3.54896 20.6079C3.5504 20.6095 3.552 20.6103 3.55339 20.6118C4.02953 21.0815 4.54363 21.5111 5.09044 21.8963C6.53601 22.9149 8.14569 23.5882 9.87439 23.8984C10.3989 23.9927 10.9 23.6435 10.9941 23.1192C11.0881 22.5946 10.7393 22.0932 10.2149 21.9992Z" fill="white"/>
<path d="M11.4059 4.29297C10.9745 4.29297 10.625 4.64275 10.625 5.07359V12.8507L17.7378 16.5277C17.8483 16.585 17.971 16.6149 18.0955 16.6148C18.378 16.6148 18.6509 16.461 18.7896 16.1926C18.9874 15.8095 18.8377 15.3388 18.4546 15.1409L12.186 11.9001V5.07359C12.1859 4.64275 11.8369 4.29297 11.4059 4.29297Z" fill="white"/>
</g>
<defs>
<clipPath id="clip0_576_7600">
<rect width="24" height="24" fill="white"/>
</clipPath>
</defs>
</svg>
