<svg width="20" height="21" viewBox="0 0 20 21" fill="none" xmlns="http://www.w3.org/2000/svg">
<path d="M19.2715 14.7882C21.2369 10.0519 18.8972 4.25818 14.1977 2.20693C14.1529 2.1865 14.1045 2.17509 14.0553 2.17336C14.0061 2.17162 13.957 2.1796 13.9109 2.19684C13.8647 2.21408 13.8224 2.24023 13.7864 2.27381C13.7504 2.3074 13.7213 2.34775 13.7009 2.39256C13.6804 2.43737 13.669 2.48577 13.6673 2.535C13.6655 2.58422 13.6735 2.6333 13.6908 2.67944C13.708 2.72558 13.7342 2.76787 13.7677 2.8039C13.8013 2.83993 13.8417 2.869 13.8865 2.88943C15.4736 3.61223 16.8196 4.77584 17.7644 6.24177C18.7091 7.70771 19.2127 9.41421 19.2152 11.1582C19.2162 12.2862 19.0051 13.4044 18.5927 14.4544C18.1748 14.3527 17.734 14.4089 17.3549 14.6122C16.9759 14.8154 16.6851 15.1514 16.5385 15.5558C16.3919 15.9602 16.3997 16.4044 16.5605 16.8034C16.7212 17.2024 17.0235 17.528 17.4095 17.7178C17.7955 17.9076 18.238 17.9482 18.6521 17.8319C19.0662 17.7156 19.4228 17.4505 19.6535 17.0875C19.8843 16.7245 19.9729 16.2891 19.9024 15.8648C19.8319 15.4404 19.6072 15.0571 19.2715 14.7882ZM0.720234 12.3582C1.32586 12.3091 1.00523 11.5519 1.06148 11.1582C1.06406 9.01549 1.82316 6.94253 3.20491 5.30488C4.58665 3.66723 6.50229 2.57009 8.61398 2.20693C8.72936 2.61205 8.98737 2.96177 9.3404 3.19156C9.69342 3.42135 10.1176 3.51571 10.5348 3.45723C10.9519 3.39875 11.3339 3.19137 11.6101 2.87336C11.8863 2.55535 12.0382 2.14816 12.0377 1.72693C11.9984 -0.407941 8.92673 -0.638566 8.56898 1.45693C6.1208 1.85847 3.9143 3.16904 2.39041 5.12674C0.866518 7.08443 0.137481 9.54507 0.348984 12.0169C0.356622 12.1101 0.399071 12.1969 0.467874 12.2602C0.536677 12.3234 0.626781 12.3584 0.720234 12.3582ZM15.238 18.6634C13.3482 19.9483 11.0431 20.4725 8.7835 20.1312C6.52392 19.7899 4.47644 18.6083 3.05048 16.8226C3.33358 16.4999 3.48757 16.0841 3.4829 15.655C3.47823 15.2258 3.31523 14.8134 3.02517 14.497C2.73511 14.1807 2.33844 13.9825 1.91127 13.9407C1.4841 13.8989 1.05652 14.0162 0.710588 14.2703C0.364657 14.5244 0.124741 14.8973 0.0368808 15.3174C-0.0509798 15.7376 0.0194037 16.1753 0.234525 16.5467C0.449646 16.9182 0.794351 17.197 1.20249 17.3299C1.61063 17.4627 2.05345 17.4402 2.44598 17.2666C3.98681 19.2092 6.2056 20.4968 8.65671 20.8709C11.1078 21.245 13.6097 20.6778 15.6599 19.2833C15.7396 19.2264 15.794 19.1405 15.8112 19.044C15.8284 18.9475 15.8072 18.8481 15.7521 18.7671C15.6969 18.686 15.6122 18.6298 15.5161 18.6104C15.4201 18.5911 15.3202 18.6101 15.238 18.6634Z" fill="#1773CF"/>
<path d="M9.98274 5.64873C7.60524 5.61498 6.27399 8.53998 7.84149 10.2987C8.10829 10.6043 8.43742 10.8493 8.80675 11.0171C9.17608 11.1849 9.57706 11.2718 9.98274 11.2718C10.3884 11.2718 10.7894 11.1849 11.1587 11.0171C11.5281 10.8493 11.8572 10.6043 12.124 10.2987C13.6802 8.53998 12.3565 5.61498 9.98274 5.64873Z" fill="#1773CF"/>
<path d="M12.2477 11.2174C11.8797 11.5162 11.4561 11.7392 11.0014 11.8734C10.5468 12.0077 10.07 12.0506 9.5987 11.9997C9.12736 11.9488 8.67077 11.8051 8.25526 11.5769C7.83975 11.3486 7.47353 11.0404 7.17774 10.6699C6.58806 11.0591 6.08493 11.5657 5.69974 12.158C5.31455 12.7502 5.05558 13.4156 4.93899 14.1124C4.91535 14.2601 4.92385 14.4111 4.96391 14.5552C5.00398 14.6993 5.07466 14.833 5.17113 14.9473C5.2676 15.0616 5.38759 15.1537 5.52291 15.2173C5.65823 15.281 5.8057 15.3147 5.95524 15.3162H14.0065C14.1564 15.3154 14.3043 15.2821 14.4402 15.2187C14.576 15.1554 14.6965 15.0633 14.7934 14.949C14.8903 14.8346 14.9613 14.7006 15.0016 14.5562C15.0418 14.4118 15.0503 14.2604 15.0265 14.1124C14.9082 13.4157 14.6481 12.7507 14.2624 12.1585C13.8767 11.5664 13.3735 11.0597 12.784 10.6699C12.6267 10.8722 12.4467 11.0559 12.2477 11.2174Z" fill="#1773CF"/>
</svg>
