<svg width="16" height="16" viewBox="0 0 16 16" fill="none" xmlns="http://www.w3.org/2000/svg">
<path d="M15.4397 8.38399L13.2685 10.5549C13.2182 10.6054 13.1583 10.6454 13.0925 10.6727C13.0266 10.7 12.956 10.714 12.8847 10.7139C12.7773 10.714 12.6723 10.6822 12.583 10.6225C12.4937 10.5629 12.424 10.4781 12.3829 10.3789C12.3419 10.2796 12.3311 10.1705 12.3521 10.0651C12.3731 9.95981 12.4248 9.86308 12.5008 9.78719L13.7456 8.54239H0.941317C0.797337 8.54239 0.659253 8.48519 0.557443 8.38338C0.455634 8.28157 0.398438 8.14349 0.398438 7.99951C0.398437 7.85553 0.455634 7.71744 0.557443 7.61563C0.659253 7.51382 0.797337 7.45663 0.941317 7.45663H13.7456L12.5008 6.21183C12.399 6.11003 12.3418 5.97196 12.3418 5.82799C12.3418 5.68402 12.399 5.54595 12.5008 5.44415C12.6026 5.34235 12.7407 5.28516 12.8847 5.28516C13.0286 5.28516 13.1667 5.34235 13.2685 5.44415L15.4397 7.61535C15.4902 7.66581 15.5303 7.72572 15.5576 7.79166C15.5849 7.85761 15.599 7.92829 15.599 7.99967C15.599 8.07105 15.5849 8.14173 15.5576 8.20767C15.5303 8.27362 15.4902 8.33353 15.4397 8.38399Z" fill="#FF383C"/>
</svg>
