<svg width="24" height="24" viewBox="0 0 24 24" fill="none" xmlns="http://www.w3.org/2000/svg">
<path d="M10.7535 4.97638L3.7669 17.0767C3.6407 17.2952 3.57424 17.5431 3.57422 17.7954C3.5742 18.0478 3.6406 18.2957 3.76677 18.5142C3.89293 18.7327 4.0744 18.9142 4.29294 19.0404C4.51147 19.1666 4.75937 19.233 5.01171 19.2329H18.9838C19.2362 19.233 19.4841 19.1666 19.7026 19.0404C19.9211 18.9142 20.1026 18.7327 20.2288 18.5142C20.3549 18.2957 20.4214 18.0478 20.4213 17.7954C20.4213 17.5431 20.3549 17.2952 20.2286 17.0767L13.2428 4.97638C13.1166 4.75791 12.9352 4.57649 12.7167 4.45035C12.4983 4.32422 12.2504 4.25781 11.9981 4.25781C11.7459 4.25781 11.498 4.32422 11.2796 4.45035C11.0611 4.57649 10.8797 4.75791 10.7535 4.97638Z" fill="#DE4717"/>
<path d="M12.0884 8.70898H11.9062C11.4575 8.70898 11.0938 9.07273 11.0938 9.52142V13.4047C11.0938 13.8534 11.4575 14.2172 11.9062 14.2172H12.0884C12.5371 14.2172 12.9009 13.8534 12.9009 13.4047V9.52142C12.9009 9.07273 12.5371 8.70898 12.0884 8.70898Z" fill="white"/>
<path d="M11.9973 17.2974C12.4963 17.2974 12.9009 16.8928 12.9009 16.3938C12.9009 15.8948 12.4963 15.4902 11.9973 15.4902C11.4983 15.4902 11.0938 15.8948 11.0938 16.3938C11.0938 16.8928 11.4983 17.2974 11.9973 17.2974Z" fill="white"/>
</svg>
