<svg width="21" height="18" viewBox="0 0 21 18" fill="none" xmlns="http://www.w3.org/2000/svg">
<path d="M19.68 5.04H14.88V0.48C14.88 0.216 14.664 0 14.4 0H5.76C5.496 0 5.28 0.216 5.28 0.48V5.04H0.48C0.216 5.04 0 5.256 0 5.52V17.28C0 17.544 0.216 17.76 0.48 17.76H19.68C19.944 17.76 20.16 17.544 20.16 17.28V5.52C20.16 5.256 19.944 5.04 19.68 5.04ZM5.28 16.8H0.96V6H5.28V16.8ZM11.52 16.8H8.64V14.4H11.52V16.8ZM13.92 5.52V16.8H12.48V13.92C12.48 13.656 12.264 13.44 12 13.44H8.16C7.896 13.44 7.68 13.656 7.68 13.92V16.8H6.24V0.96H13.92V5.52ZM19.2 16.8H14.88V6H19.2V16.8Z" fill="black"/>
<path d="M7.67625 2.87992H9.11625C9.38025 2.87992 9.59625 2.66392 9.59625 2.39992C9.59625 2.13592 9.38025 1.91992 9.11625 1.91992H7.67625C7.41225 1.91992 7.19625 2.13592 7.19625 2.39992C7.19625 2.66392 7.41225 2.87992 7.67625 2.87992ZM2.63625 7.67992H3.59625C3.86025 7.67992 4.07625 7.46392 4.07625 7.19992C4.07625 6.93592 3.86025 6.71992 3.59625 6.71992H2.63625C2.37225 6.71992 2.15625 6.93592 2.15625 7.19992C2.15625 7.46392 2.37225 7.67992 2.63625 7.67992ZM2.63625 9.35992H3.59625C3.86025 9.35992 4.07625 9.14392 4.07625 8.87992C4.07625 8.61592 3.86025 8.39992 3.59625 8.39992H2.63625C2.37225 8.39992 2.15625 8.61592 2.15625 8.87992C2.15625 9.14392 2.37225 9.35992 2.63625 9.35992ZM2.63625 11.0399H3.59625C3.86025 11.0399 4.07625 10.8239 4.07625 10.5599C4.07625 10.2959 3.86025 10.0799 3.59625 10.0799H2.63625C2.37225 10.0799 2.15625 10.2959 2.15625 10.5599C2.15625 10.8239 2.37225 11.0399 2.63625 11.0399ZM2.63625 12.7199H3.59625C3.86025 12.7199 4.07625 12.5039 4.07625 12.2399C4.07625 11.9759 3.86025 11.7599 3.59625 11.7599H2.63625C2.37225 11.7599 2.15625 11.9759 2.15625 12.2399C2.15625 12.5039 2.37225 12.7199 2.63625 12.7199ZM2.63625 14.3999H3.59625C3.86025 14.3999 4.07625 14.1839 4.07625 13.9199C4.07625 13.6559 3.86025 13.4399 3.59625 13.4399H2.63625C2.37225 13.4399 2.15625 13.6559 2.15625 13.9199C2.15625 14.1839 2.37225 14.3999 2.63625 14.3999ZM2.63625 16.0799H3.59625C3.86025 16.0799 4.07625 15.8639 4.07625 15.5999C4.07625 15.3359 3.86025 15.1199 3.59625 15.1199H2.63625C2.37225 15.1199 2.15625 15.3359 2.15625 15.5999C2.15625 15.8639 2.37225 16.0799 2.63625 16.0799ZM16.5562 7.67992H17.5162C17.7802 7.67992 17.9962 7.46392 17.9962 7.19992C17.9962 6.93592 17.7802 6.71992 17.5162 6.71992H16.5562C16.2922 6.71992 16.0763 6.93592 16.0763 7.19992C16.0763 7.46392 16.2922 7.67992 16.5562 7.67992ZM16.5562 9.35992H17.5162C17.7802 9.35992 17.9962 9.14392 17.9962 8.87992C17.9962 8.61592 17.7802 8.39992 17.5162 8.39992H16.5562C16.2922 8.39992 16.0763 8.61592 16.0763 8.87992C16.0763 9.14392 16.2922 9.35992 16.5562 9.35992ZM16.5562 11.0399H17.5162C17.7802 11.0399 17.9962 10.8239 17.9962 10.5599C17.9962 10.2959 17.7802 10.0799 17.5162 10.0799H16.5562C16.2922 10.0799 16.0763 10.2959 16.0763 10.5599C16.0763 10.8239 16.2922 11.0399 16.5562 11.0399ZM16.5562 12.7199H17.5162C17.7802 12.7199 17.9962 12.5039 17.9962 12.2399C17.9962 11.9759 17.7802 11.7599 17.5162 11.7599H16.5562C16.2922 11.7599 16.0763 11.9759 16.0763 12.2399C16.0763 12.5039 16.2922 12.7199 16.5562 12.7199ZM16.5562 14.3999H17.5162C17.7802 14.3999 17.9962 14.1839 17.9962 13.9199C17.9962 13.6559 17.7802 13.4399 17.5162 13.4399H16.5562C16.2922 13.4399 16.0763 13.6559 16.0763 13.9199C16.0763 14.1839 16.2922 14.3999 16.5562 14.3999ZM16.5562 16.0799H17.5162C17.7802 16.0799 17.9962 15.8639 17.9962 15.5999C17.9962 15.3359 17.7802 15.1199 17.5162 15.1199H16.5562C16.2922 15.1199 16.0763 15.3359 16.0763 15.5999C16.0763 15.8639 16.2922 16.0799 16.5562 16.0799ZM11.0363 2.87992H12.4762C12.7402 2.87992 12.9563 2.66392 12.9563 2.39992C12.9563 2.13592 12.7402 1.91992 12.4762 1.91992H11.0363C10.7723 1.91992 10.5562 2.13592 10.5562 2.39992C10.5562 2.66392 10.7723 2.87992 11.0363 2.87992ZM7.67625 4.79992H9.11625C9.38025 4.79992 9.59625 4.58392 9.59625 4.31992C9.59625 4.05592 9.38025 3.83992 9.11625 3.83992H7.67625C7.41225 3.83992 7.19625 4.05592 7.19625 4.31992C7.19625 4.58392 7.41225 4.79992 7.67625 4.79992ZM11.0363 4.79992H12.4762C12.7402 4.79992 12.9563 4.58392 12.9563 4.31992C12.9563 4.05592 12.7402 3.83992 12.4762 3.83992H11.0363C10.7723 3.83992 10.5562 4.05592 10.5562 4.31992C10.5562 4.58392 10.7723 4.79992 11.0363 4.79992ZM7.67625 6.71992H9.11625C9.38025 6.71992 9.59625 6.50392 9.59625 6.23992C9.59625 5.97592 9.38025 5.75992 9.11625 5.75992H7.67625C7.41225 5.75992 7.19625 5.97592 7.19625 6.23992C7.19625 6.50392 7.41225 6.71992 7.67625 6.71992ZM11.0363 6.71992H12.4762C12.7402 6.71992 12.9563 6.50392 12.9563 6.23992C12.9563 5.97592 12.7402 5.75992 12.4762 5.75992H11.0363C10.7723 5.75992 10.5562 5.97592 10.5562 6.23992C10.5562 6.50392 10.7723 6.71992 11.0363 6.71992ZM7.67625 8.63992H9.11625C9.38025 8.63992 9.59625 8.42392 9.59625 8.15992C9.59625 7.89592 9.38025 7.67992 9.11625 7.67992H7.67625C7.41225 7.67992 7.19625 7.89592 7.19625 8.15992C7.19625 8.42392 7.41225 8.63992 7.67625 8.63992ZM11.0363 8.63992H12.4762C12.7402 8.63992 12.9563 8.42392 12.9563 8.15992C12.9563 7.89592 12.7402 7.67992 12.4762 7.67992H11.0363C10.7723 7.67992 10.5562 7.89592 10.5562 8.15992C10.5562 8.42392 10.7723 8.63992 11.0363 8.63992ZM7.67625 10.5599H9.11625C9.38025 10.5599 9.59625 10.3439 9.59625 10.0799C9.59625 9.81592 9.38025 9.59992 9.11625 9.59992H7.67625C7.41225 9.59992 7.19625 9.81592 7.19625 10.0799C7.19625 10.3439 7.41225 10.5599 7.67625 10.5599ZM11.0363 10.5599H12.4762C12.7402 10.5599 12.9563 10.3439 12.9563 10.0799C12.9563 9.81592 12.7402 9.59992 12.4762 9.59992H11.0363C10.7723 9.59992 10.5562 9.81592 10.5562 10.0799C10.5562 10.3439 10.7723 10.5599 11.0363 10.5599ZM7.67625 12.4799H9.11625C9.38025 12.4799 9.59625 12.2639 9.59625 11.9999C9.59625 11.7359 9.38025 11.5199 9.11625 11.5199H7.67625C7.41225 11.5199 7.19625 11.7359 7.19625 11.9999C7.19625 12.2639 7.41225 12.4799 7.67625 12.4799ZM11.0363 12.4799H12.4762C12.7402 12.4799 12.9563 12.2639 12.9563 11.9999C12.9563 11.7359 12.7402 11.5199 12.4762 11.5199H11.0363C10.7723 11.5199 10.5562 11.7359 10.5562 11.9999C10.5562 12.2639 10.7723 12.4799 11.0363 12.4799Z" fill="black"/>
</svg>
