<svg width="24" height="24" viewBox="0 0 24 24" fill="none" xmlns="http://www.w3.org/2000/svg">
<rect width="24" height="24" rx="12" fill="#FF5F57"/>
<path d="M11.2493 10.0007C11.2493 9.80183 11.3284 9.61106 11.469 9.47041C11.6097 9.32976 11.8004 9.25074 11.9993 9.25074H18.1883L15.4683 6.53074C15.3987 6.46107 15.3434 6.37837 15.3057 6.28734C15.268 6.19632 15.2486 6.09876 15.2486 6.00024C15.2486 5.90172 15.268 5.80416 15.3057 5.71314C15.3434 5.62211 15.3987 5.53941 15.4683 5.46974C15.538 5.40007 15.6207 5.34481 15.7117 5.30711C15.8028 5.26941 15.9003 5.25 15.9988 5.25C16.0974 5.25 16.1949 5.26941 16.2859 5.30711C16.377 5.34481 16.4597 5.40007 16.5293 5.46974L20.5293 9.46974C20.6341 9.57463 20.7054 9.70821 20.7343 9.8536C20.7632 9.999 20.7483 10.1497 20.6916 10.2867C20.6349 10.4236 20.5389 10.5407 20.4157 10.6231C20.2925 10.7056 20.1476 10.7496 19.9993 10.7497H11.9993C11.8004 10.7497 11.6097 10.6707 11.469 10.5301C11.3284 10.3894 11.2493 10.1987 11.2493 9.99974V10.0007ZM12.9993 13.2507H3.99934C3.8511 13.2509 3.70622 13.2949 3.58301 13.3773C3.45979 13.4598 3.36377 13.5769 3.30705 13.7138C3.25034 13.8508 3.23549 14.0015 3.26438 14.1469C3.29326 14.2923 3.36458 14.4259 3.46934 14.5307L7.46934 18.5307C7.53884 18.6005 7.62143 18.6559 7.71238 18.6937C7.80334 18.7315 7.90085 18.7509 7.99934 18.7509C8.09783 18.7509 8.19534 18.7315 8.2863 18.6937C8.37725 18.6559 8.45984 18.6005 8.52934 18.5307C8.59904 18.4611 8.65432 18.3784 8.69204 18.2874C8.72976 18.1963 8.74918 18.0988 8.74918 18.0002C8.74918 17.9017 8.72976 17.8041 8.69204 17.7131C8.65432 17.6221 8.59904 17.5394 8.52934 17.4697L5.80934 14.7497H12.9983C13.1973 14.7497 13.388 14.6707 13.5287 14.5301C13.6693 14.3894 13.7483 14.1987 13.7483 13.9997C13.7483 13.8008 13.6693 13.6101 13.5287 13.4694C13.388 13.3288 13.1973 13.2497 12.9983 13.2497L12.9993 13.2507Z" fill="white"/>
</svg>
