<svg width="24" height="24" viewBox="0 0 24 24" fill="none" xmlns="http://www.w3.org/2000/svg">
<g clip-path="url(#clip0_476_5347)">
<path d="M7.66125 6.375C7.32042 6.37599 6.99383 6.51182 6.75283 6.75283C6.51182 6.99383 6.37599 7.32042 6.375 7.66125V16.3387C6.37599 16.6796 6.51182 17.0062 6.75283 17.2472C6.99383 17.4882 7.32042 17.624 7.66125 17.625H16.3387C16.6796 17.624 17.0062 17.4882 17.2472 17.2472C17.4882 17.0062 17.624 16.6796 17.625 16.3387V7.66125C17.624 7.32042 17.4882 6.99383 17.2472 6.75283C17.0062 6.51182 16.6796 6.37599 16.3387 6.375H7.66125ZM12 13.5C11.7033 13.5 11.4133 13.412 11.1666 13.2472C10.92 13.0824 10.7277 12.8481 10.6142 12.574C10.5006 12.2999 10.4709 11.9983 10.5288 11.7074C10.5867 11.4164 10.7296 11.1491 10.9393 10.9393C11.1491 10.7296 11.4164 10.5867 11.7074 10.5288C11.9983 10.4709 12.2999 10.5006 12.574 10.6142C12.8481 10.7277 13.0824 10.92 13.2472 11.1666C13.412 11.4133 13.5 11.7033 13.5 12C13.5 12.3978 13.342 12.7794 13.0607 13.0607C12.7794 13.342 12.3978 13.5 12 13.5Z" fill="black"/>
<path d="M23.7967 11.5533L22.5442 10.3008C22.4331 10.1902 22.2828 10.1281 22.126 10.1281C21.9693 10.1281 21.819 10.1902 21.7079 10.3008L20.4554 11.5533C20.3742 11.668 20.3364 11.8078 20.3487 11.9478C20.3611 12.0878 20.4228 12.2189 20.5229 12.3176C20.6229 12.4162 20.7548 12.4762 20.8949 12.4866C21.035 12.4971 21.1743 12.4574 21.2879 12.3746L21.3667 12.2958C21.3035 14.2804 20.6119 16.1936 19.3915 17.7598C18.1711 19.326 16.485 20.4643 14.5761 21.0107C12.6672 21.557 10.6341 21.4832 8.76989 20.7999C6.90565 20.1165 5.30651 18.8589 4.20292 17.2083C4.14882 17.1247 4.07862 17.0527 3.99641 16.9966C3.9142 16.9404 3.82162 16.9011 3.72409 16.8811C3.62655 16.8611 3.526 16.8607 3.4283 16.8799C3.33061 16.8992 3.23772 16.9377 3.15506 16.9932C3.0724 17.0487 3.00163 17.1201 2.94687 17.2033C2.8921 17.2865 2.85445 17.3797 2.8361 17.4776C2.81774 17.5754 2.81907 17.676 2.83998 17.7733C2.8609 17.8707 2.90099 17.9629 2.95792 18.0446C4.23972 19.9649 6.09943 21.4274 8.2678 22.2204C10.4362 23.0134 12.8006 23.0958 15.0189 22.4555C17.2372 21.8152 19.1941 20.4855 20.6063 18.659C22.0186 16.8324 22.8129 14.6038 22.8742 12.2958L22.9679 12.3896C23.0214 12.4503 23.0868 12.4995 23.1601 12.534C23.2333 12.5684 23.3129 12.5876 23.3938 12.5901C23.4747 12.5927 23.5553 12.5786 23.6306 12.5488C23.7058 12.519 23.7742 12.4741 23.8315 12.4169C23.8887 12.3596 23.9336 12.2912 23.9634 12.216C23.9932 12.1407 24.0073 12.0601 24.0047 11.9792C24.0021 11.8983 23.983 11.8187 23.9485 11.7455C23.914 11.6722 23.8649 11.6068 23.8042 11.5533H23.7967ZM3.52042 11.6246C3.40937 11.514 3.25902 11.4519 3.10229 11.4519C2.94556 11.4519 2.79521 11.514 2.68417 11.6246L2.62417 11.6883C2.69651 9.71056 3.3929 7.80641 4.61358 6.24861C5.83427 4.69081 7.51664 3.55927 9.41973 3.01607C11.3228 2.47286 13.349 2.54585 15.2081 3.22459C17.0671 3.90332 18.6637 5.15298 19.7692 6.79458C19.8172 6.88985 19.885 6.97377 19.9681 7.04073C20.0512 7.1077 20.1476 7.15617 20.2509 7.1829C20.3542 7.20964 20.462 7.21403 20.5671 7.19578C20.6722 7.17753 20.7723 7.13705 20.8605 7.07706C20.9487 7.01707 21.0232 6.93894 21.0788 6.8479C21.1344 6.75685 21.17 6.65498 21.1831 6.54909C21.1962 6.4432 21.1866 6.33573 21.1549 6.23386C21.1232 6.13198 21.0701 6.03805 20.9992 5.95833C19.7111 4.05558 17.8534 2.6097 15.6927 1.82813C13.532 1.04657 11.1792 0.969474 8.97193 1.60791C6.76466 2.24636 4.81634 3.56752 3.40646 5.38187C1.99658 7.19622 1.19761 9.41051 1.12417 11.7071L1.01167 11.6246C0.961278 11.5559 0.896668 11.4989 0.822242 11.4574C0.747815 11.4159 0.665323 11.391 0.580391 11.3843C0.495459 11.3777 0.410085 11.3894 0.330089 11.4187C0.250094 11.448 0.177359 11.4942 0.116846 11.5542C0.0563319 11.6141 0.00946227 11.6864 -0.020567 11.7662C-0.0505963 11.8459 -0.063079 11.9312 -0.0571638 12.0162C-0.0512487 12.1011 -0.0270749 12.1839 0.0137092 12.2587C0.0544933 12.3334 0.110928 12.3986 0.179166 12.4496L1.43167 13.7021C1.54271 13.8127 1.69306 13.8748 1.84979 13.8748C2.00652 13.8748 2.15687 13.8127 2.26792 13.7021L3.52042 12.4496C3.62763 12.339 3.68759 12.1911 3.68759 12.0371C3.68759 11.8831 3.62763 11.7351 3.52042 11.6246Z" fill="black"/>
</g>
<defs>
<clipPath id="clip0_476_5347">
<rect width="24" height="24" fill="white"/>
</clipPath>
</defs>
</svg>
