<svg width="24" height="24" viewBox="0 0 24 24" fill="none" xmlns="http://www.w3.org/2000/svg">
<path fill-rule="evenodd" clip-rule="evenodd" d="M7.61395 10.4156L11.625 7.00802V2.02315L10.8327 3.03785C10.7712 3.11449 10.682 3.16383 10.5844 3.17519C10.4868 3.18654 10.3887 3.159 10.3112 3.09852C10.2338 3.03804 10.1833 2.9495 10.1707 2.85206C10.1581 2.75462 10.1843 2.65613 10.2438 2.57791L11.7056 0.706008C11.8579 0.511008 12.1521 0.516539 12.2988 0.711586L13.7563 2.57791C13.7865 2.61658 13.8088 2.66082 13.8219 2.7081C13.835 2.75538 13.8386 2.80478 13.8326 2.85348C13.8266 2.90217 13.8111 2.94921 13.787 2.99191C13.7628 3.03461 13.7305 3.07213 13.6918 3.10233C13.6531 3.13253 13.6089 3.15482 13.5616 3.16792C13.5143 3.18102 13.4649 3.18469 13.4162 3.1787C13.3675 3.17271 13.3205 3.15719 13.2778 3.13303C13.2351 3.10886 13.1976 3.07652 13.1674 3.03785L12.375 2.0232V7.00807L16.386 10.4156V11.3976L12.375 7.99005V16.5721H11.625V7.98996L7.61391 11.3976V10.4156H7.61395ZM0.75 9.12902H2.78344V11.6235H4.83052V9.12902H6.86395V14.8354C6.86395 15.0598 6.68086 15.2429 6.45637 15.2429H1.15758C0.933094 15.2429 0.75 15.0598 0.75 14.8354V9.12902ZM17.136 9.12902H19.1695V11.6235H21.2166V9.12902H23.25V14.8354C23.25 15.0598 23.0669 15.2429 22.8424 15.2429H17.5437C17.3192 15.2429 17.1361 15.0598 17.1361 14.8354V9.12902H17.136ZM8.94305 17.322H10.9765V19.8165H13.0236V17.322H15.057V23.0284C15.057 23.2528 14.8739 23.4359 14.6494 23.4359H9.35063C9.12614 23.4359 8.94305 23.2528 8.94305 23.0284V17.322Z" fill="#D732A8"/>
</svg>
