<svg width="24" height="24" viewBox="0 0 24 24" fill="none" xmlns="http://www.w3.org/2000/svg">
<rect width="24" height="24" rx="12" fill="#1773CF"/>
<path d="M3.25 10.0007C3.25 9.80183 3.32902 9.61106 3.46967 9.47041C3.61032 9.32976 3.80109 9.25074 4 9.25074H18.189L15.469 6.53074C15.3993 6.46107 15.3441 6.37837 15.3064 6.28734C15.2687 6.19632 15.2493 6.09876 15.2493 6.00024C15.2493 5.90172 15.2687 5.80416 15.3064 5.71314C15.3441 5.62211 15.3993 5.53941 15.469 5.46974C15.5387 5.40007 15.6214 5.34481 15.7124 5.30711C15.8034 5.26941 15.901 5.25 15.9995 5.25C16.098 5.25 16.1956 5.26941 16.2866 5.30711C16.3776 5.34481 16.4603 5.40007 16.53 5.46974L20.53 9.46974C20.6348 9.57463 20.7061 9.70821 20.735 9.8536C20.7638 9.999 20.749 10.1497 20.6923 10.2867C20.6356 10.4236 20.5395 10.5407 20.4163 10.6231C20.2931 10.7056 20.1482 10.7496 20 10.7497H4C3.80109 10.7497 3.61032 10.6707 3.46967 10.5301C3.32902 10.3894 3.25 10.1987 3.25 9.99974V10.0007ZM20 13.2507H4C3.85176 13.2509 3.70688 13.2949 3.58367 13.3773C3.46045 13.4598 3.36442 13.5769 3.30771 13.7138C3.251 13.8508 3.23615 14.0015 3.26503 14.1469C3.29392 14.2923 3.36524 14.4259 3.47 14.5307L7.47 18.5307C7.5395 18.6005 7.62209 18.6559 7.71304 18.6937C7.804 18.7315 7.90151 18.7509 8 18.7509C8.09849 18.7509 8.196 18.7315 8.28696 18.6937C8.37791 18.6559 8.4605 18.6005 8.53 18.5307C8.59969 18.4611 8.65498 18.3784 8.6927 18.2874C8.73042 18.1963 8.74984 18.0988 8.74984 18.0002C8.74984 17.9017 8.73042 17.8041 8.6927 17.7131C8.65498 17.6221 8.59969 17.5394 8.53 17.4697L5.81 14.7497H19.999C20.1979 14.7497 20.3887 14.6707 20.5293 14.5301C20.67 14.3894 20.749 14.1987 20.749 13.9997C20.749 13.8008 20.67 13.6101 20.5293 13.4694C20.3887 13.3288 20.1979 13.2497 19.999 13.2497L20 13.2507Z" fill="white"/>
</svg>
