<svg width="24" height="24" viewBox="0 0 24 24" fill="none" xmlns="http://www.w3.org/2000/svg">
<path fill-rule="evenodd" clip-rule="evenodd" d="M12.1579 15.0238V16.8482C12.1575 16.873 12.1639 16.8974 12.1763 16.9188C12.1886 16.9402 12.2066 16.9579 12.2282 16.97L13.656 17.7944C13.7501 17.8487 13.867 17.7812 13.867 17.6726V15.2364L19.7604 11.8338L21.6183 12.9064C21.7673 12.9925 21.8527 13.1402 21.8527 13.3124V19.5763C21.8527 19.7484 21.7673 19.8962 21.6183 19.9823L16.1935 23.1142C16.0445 23.2003 15.8738 23.2003 15.7248 23.1142L10.3 19.9823C10.151 19.8962 10.0657 19.7484 10.0657 19.5763V13.9078L11.7395 14.8742C11.8687 14.9491 12.0105 14.9998 12.1579 15.0238ZM12.5833 0.884859C12.4342 0.798797 12.2636 0.798797 12.1146 0.884859L6.68977 4.01686C6.5407 4.10292 6.45539 4.25072 6.45539 4.4228V10.6867C6.45539 10.8589 6.5407 11.0066 6.68977 11.0927L12.1145 14.2247C12.2636 14.3108 12.4342 14.3108 12.5833 14.2247L18.008 11.0927C18.1571 11.0066 18.2424 10.8589 18.2424 10.6867V4.4228C18.2424 4.25067 18.1571 4.10292 18.008 4.01686L16.1502 2.94427L10.2567 6.34687V8.78306C10.2567 8.89167 10.1399 8.95913 10.0458 8.90484L8.61792 8.08045C8.59632 8.06837 8.57838 8.05068 8.566 8.02924C8.55362 8.00781 8.54727 7.98342 8.54761 7.95867V5.36011L14.4411 1.9575L12.5833 0.884859ZM5.70539 8.82844L4.2367 9.67641V12.275C4.23636 12.2997 4.24271 12.3241 4.25509 12.3455C4.26747 12.367 4.28541 12.3847 4.30702 12.3967L5.73488 13.2211C5.82891 13.2755 5.94581 13.208 5.94581 13.0994V11.4161C6.04542 11.5487 6.17093 11.6596 6.31472 11.7422L9.31561 13.4748V17.9386L8.27231 18.541C8.12325 18.627 7.95263 18.627 7.80356 18.541L2.37891 15.409C2.22984 15.323 2.14453 15.1752 2.14453 15.0031V8.73909C2.14453 8.56697 2.22984 8.41922 2.37891 8.33316L5.70539 6.41264V8.82844Z" fill="#8A226F"/>
</svg>
