<svg width="19" height="20" viewBox="0 0 19 20" fill="none" xmlns="http://www.w3.org/2000/svg">
<path d="M6.68848 10.7568H7.88574C7.88938 10.7595 7.8997 10.7694 7.90918 10.79C7.92032 10.8145 7.92326 10.8374 7.92188 10.8564L7.9082 10.9004C7.12279 12.0409 6.6623 13.4249 6.66211 14.9131C6.65956 16.3869 7.11831 17.8248 7.97461 19.0244C7.9882 19.0434 7.99956 19.0869 7.97656 19.1387C7.96653 19.1612 7.95507 19.172 7.95117 19.1748H2.73047C2.13904 19.1748 1.57153 18.9397 1.15332 18.5215C0.735249 18.1034 0.500083 17.5366 0.5 16.9453C0.5 15.3042 1.15202 13.7298 2.3125 12.5693C3.47297 11.4089 5.04736 10.7568 6.68848 10.7568ZM7.87305 0.5C8.93236 0.500012 9.94818 0.920917 10.6973 1.66992C11.4463 2.41895 11.8671 3.43486 11.8672 4.49414C11.8672 5.55355 11.4464 6.57022 10.6973 7.31934C9.94819 8.06826 8.9323 8.48925 7.87305 8.48926C6.8138 8.48926 5.79791 8.06824 5.04883 7.31934C4.29971 6.57022 3.87891 5.55355 3.87891 4.49414C3.879 3.43486 4.2998 2.41895 5.04883 1.66992C5.79792 0.920934 6.81374 0.5 7.87305 0.5Z" fill="#1773CF" stroke="#0088FF"/>
<path fill-rule="evenodd" clip-rule="evenodd" d="M18.832 14.9151C18.832 16.2637 18.2962 17.5571 17.3426 18.5107C16.389 19.4643 15.0956 20.0001 13.747 20.0001C12.3984 20.0001 11.105 19.4643 10.1513 18.5107C9.19773 17.5571 8.66199 16.2637 8.66199 14.9151C8.66199 13.5665 9.19773 12.2731 10.1513 11.3194C11.105 10.3658 12.3984 9.83008 13.747 9.83008C15.0956 9.83008 16.389 10.3658 17.3426 11.3194C18.2962 12.2731 18.832 13.5665 18.832 14.9151ZM16.658 12.9821C16.7322 13.047 16.7928 13.1259 16.8365 13.2142C16.8802 13.3026 16.906 13.3987 16.9125 13.4971C16.919 13.5954 16.9061 13.6941 16.8744 13.7874C16.8427 13.8808 16.793 13.967 16.728 14.0411L14.158 16.9741C14.0448 17.1031 13.9062 17.2075 13.7509 17.2806C13.5956 17.3537 13.4268 17.3941 13.2552 17.3992C13.0836 17.4042 12.9128 17.3739 12.7535 17.3101C12.5941 17.2462 12.4496 17.1502 12.329 17.0281L10.886 15.5681C10.8167 15.498 10.7619 15.4149 10.7248 15.3236C10.6876 15.2323 10.6688 15.1346 10.6694 15.036C10.67 14.9374 10.69 14.8399 10.7283 14.7491C10.7666 14.6583 10.8224 14.5759 10.8925 14.5066C10.9626 14.4373 11.0457 14.3825 11.137 14.3454C11.2283 14.3082 11.326 14.2894 11.4246 14.29C11.5232 14.2906 11.6206 14.3106 11.7115 14.3489C11.8023 14.3872 11.8847 14.443 11.954 14.5131L12.83 15.4011C12.8783 15.45 12.9361 15.4884 12.9999 15.5139C13.0637 15.5395 13.1321 15.5516 13.2008 15.5495C13.2695 15.5475 13.337 15.5313 13.3991 15.5019C13.4613 15.4726 13.5167 15.4308 13.562 15.3791L15.599 13.0531C15.6639 12.9789 15.7428 12.9182 15.8311 12.8746C15.9195 12.8309 16.0156 12.8051 16.114 12.7986C16.2123 12.7921 16.311 12.805 16.4043 12.8367C16.4977 12.8683 16.5839 12.9171 16.658 12.9821Z" fill="#1773CF"/>
</svg>
