<svg width="24" height="24" viewBox="0 0 24 24" fill="none" xmlns="http://www.w3.org/2000/svg">
<g clip-path="url(#clip0_452_6535)">
<path d="M6.37183 5.22656C6.16858 5.22657 5.97366 5.30732 5.82994 5.45104C5.68623 5.59476 5.60548 5.78967 5.60547 5.99292V12.2179H15.7598V5.22703L6.37183 5.22656Z" fill="#0088FF"/>
<path d="M23.8154 10.522L20.4626 6.61131C20.3906 6.52739 20.3014 6.46003 20.2009 6.41385C20.1005 6.36766 19.9913 6.34375 19.8807 6.34375L17.2943 6.34394V12.9838C17.2943 13.407 16.9512 13.7501 16.528 13.7501H5.60723V16.0492C5.60723 16.4725 5.95031 16.8156 6.37359 16.8156H8.60766C8.93944 17.9445 9.98428 18.7714 11.2193 18.7714C12.4543 18.7714 13.499 17.9445 13.8309 16.8156H15.8722C16.2039 17.9445 17.2488 18.7714 18.4838 18.7714C19.7188 18.7714 20.7635 17.9445 21.0954 16.8156H23.2337C23.6569 16.8156 24 16.4725 24 16.0492V11.0208C24 10.8378 23.9345 10.6608 23.8154 10.522ZM11.2193 17.2387C10.5634 17.2387 10.0298 16.7051 10.0298 16.0493C10.0298 15.3934 10.5634 14.8598 11.2193 14.8598C11.8751 14.8598 12.4088 15.3934 12.4088 16.0493C12.4088 16.7052 11.8751 17.2387 11.2193 17.2387ZM19.6733 16.05C19.6728 16.7055 19.1394 17.2387 18.4838 17.2387C17.8279 17.2387 17.2943 16.7052 17.2943 16.0494C17.2943 15.3934 17.8279 14.8598 18.4838 14.8598C19.1394 14.8598 19.6728 15.3931 19.6733 16.0487L19.6732 16.0493C19.6731 16.0495 19.6733 16.0497 19.6733 16.05ZM0.766453 10.2545C0.343266 10.2545 0 10.5977 0 11.0208C9.375e-05 11.4441 0.343172 11.7873 0.766359 11.7873L4.07442 11.7873V10.2546L0.766453 10.2545ZM4.07442 7.18909H3.321C2.89781 7.18914 2.55464 7.53222 2.55464 7.95541C2.55464 8.37869 2.89781 8.72181 3.321 8.72181H4.07447L4.07442 7.18909ZM4.07442 13.3201H2.29922C1.87603 13.3201 1.53286 13.6632 1.53286 14.0865C1.53286 14.5097 1.87603 14.8528 2.29922 14.8528H4.07452L4.07442 13.3201Z" fill="#0088FF"/>
</g>
<defs>
<clipPath id="clip0_452_6535">
<rect width="24" height="24" fill="white"/>
</clipPath>
</defs>
</svg>
