<svg width="19" height="22" viewBox="0 0 19 22" fill="none" xmlns="http://www.w3.org/2000/svg">
<path fill-rule="evenodd" clip-rule="evenodd" d="M1.49825 11.986V5.99299C1.49825 5.89373 1.53759 5.79822 1.60801 5.72817L7.22643 0.109747C7.26117 0.074913 7.30243 0.047285 7.34787 0.0284513C7.39332 0.00961749 7.44204 -5.06185e-05 7.49124 1.99295e-07H18.3535C18.4529 1.99295e-07 18.5481 0.0394626 18.6184 0.109707C18.6886 0.179951 18.7281 0.275222 18.7281 0.374562V21.35C18.7281 21.4494 18.6886 21.5446 18.6184 21.6149C18.5481 21.6851 18.4529 21.7246 18.3535 21.7246H1.87281C1.77347 21.7246 1.6782 21.6851 1.60796 21.6149C1.53772 21.5446 1.49825 21.4494 1.49825 21.35V19.4772H1.12369C0.976094 19.4773 0.829924 19.4483 0.693548 19.3919C0.557171 19.3354 0.433271 19.2527 0.328908 19.1483C0.224544 19.044 0.141778 18.92 0.085342 18.7837C0.0289064 18.6473 -9.82433e-05 18.5011 2.50005e-07 18.3535V13.1097C2.50005e-07 12.8116 0.118382 12.5258 0.329114 12.3151C0.539845 12.1044 0.825666 11.986 1.12369 11.986H1.49825ZM2.24737 19.4772V20.9755H17.979V0.749124H7.8658V5.99299C7.8658 6.09233 7.82633 6.1876 7.75609 6.25784C7.68584 6.32808 7.59058 6.36755 7.49124 6.36755H2.24737V11.986H13.8588C14.1568 11.986 14.4426 12.1044 14.6534 12.3151C14.8641 12.5258 14.9825 12.8116 14.9825 13.1097V18.3535C14.9826 18.5011 14.9536 18.6473 14.8971 18.7837C14.8407 18.92 14.7579 19.044 14.6536 19.1483C14.5492 19.2527 14.4253 19.3354 14.2889 19.3919C14.1525 19.4483 14.0064 19.4773 13.8588 19.4772H2.24737ZM14.2333 13.1097V18.3535C14.2333 18.4529 14.1939 18.5481 14.1236 18.6184C14.0534 18.6886 13.9581 18.7281 13.8588 18.7281H1.12369C1.02441 18.7279 0.929243 18.6884 0.859042 18.6182C0.788841 18.548 0.749322 18.4528 0.749124 18.3535V13.1097C0.748976 13.0604 0.758564 13.0117 0.777335 12.9662C0.796106 12.9206 0.823682 12.8793 0.858493 12.8445C0.893304 12.8097 0.934651 12.7821 0.980162 12.7633C1.02567 12.7445 1.07446 12.735 1.12369 12.7351H13.8588C13.908 12.735 13.9568 12.7445 14.0023 12.7633C14.0478 12.7821 14.0892 12.8097 14.124 12.8445C14.1588 12.8793 14.1864 12.9206 14.2051 12.9662C14.2239 13.0117 14.2335 13.0604 14.2333 13.1097ZM13.2265 14.9825C13.2265 14.5851 13.0687 14.204 12.7877 13.9231C12.5067 13.6421 12.1256 13.4842 11.7283 13.4842H11.5275C11.1833 13.4842 10.8533 13.6209 10.6098 13.864C10.3667 14.1075 10.2301 14.4376 10.23 14.7817V14.7821C10.2301 15.0281 10.3075 15.2679 10.4513 15.4675C10.5952 15.6671 10.7982 15.8163 11.0316 15.8942L12.1609 16.2706C12.3497 16.3335 12.4774 16.5103 12.4774 16.7096V16.71C12.4774 16.9969 12.2444 17.2298 11.9575 17.2298H11.7283C11.6299 17.2299 11.5324 17.2106 11.4415 17.1729C11.3506 17.1353 11.268 17.0801 11.1985 17.0105C11.1289 16.941 11.0737 16.8584 11.0361 16.7675C10.9985 16.6765 10.9791 16.5791 10.9792 16.4807C10.9792 16.3814 10.9397 16.2861 10.8694 16.2159C10.7992 16.1456 10.7039 16.1062 10.6046 16.1062C10.5053 16.1062 10.41 16.1456 10.3397 16.2159C10.2695 16.2861 10.23 16.3814 10.23 16.4807C10.23 16.6775 10.2687 16.8723 10.344 17.0541C10.4193 17.2359 10.5296 17.4011 10.6687 17.5403C10.8079 17.6794 10.9731 17.7898 11.1549 17.865C11.3367 17.9403 11.5315 17.979 11.7283 17.979H11.9575C12.2941 17.979 12.6169 17.8453 12.8548 17.6073C13.0928 17.3693 13.2265 17.0465 13.2265 16.71V16.7096C13.2265 16.4552 13.1464 16.2072 12.9976 16.0009C12.8489 15.7945 12.639 15.6401 12.3976 15.5597L11.2687 15.1836C11.1844 15.1555 11.1111 15.1017 11.0591 15.0296C11.0071 14.9575 10.9792 14.8709 10.9792 14.7821V14.7817C10.979 14.7097 10.9931 14.6383 11.0206 14.5717C11.0481 14.5051 11.0885 14.4446 11.1394 14.3936C11.1904 14.3427 11.2509 14.3023 11.3175 14.2748C11.3841 14.2473 11.4555 14.2332 11.5275 14.2333H11.7283C11.927 14.2333 12.1175 14.3123 12.258 14.4528C12.3985 14.5933 12.4774 14.7838 12.4774 14.9825C12.4774 15.0818 12.5169 15.1771 12.5871 15.2473C12.6574 15.3176 12.7526 15.357 12.852 15.357C12.9513 15.357 13.0466 15.3176 13.1168 15.2473C13.1871 15.1771 13.2265 15.0818 13.2265 14.9825ZM7.11667 13.8588V17.6044C7.11667 17.7037 7.15614 17.799 7.22639 17.8693C7.29663 17.9395 7.3919 17.979 7.49124 17.979H9.37004C9.46937 17.979 9.56464 17.9395 9.63488 17.8693C9.70513 17.799 9.7446 17.7037 9.7446 17.6044C9.7446 17.5051 9.70513 17.4098 9.63488 17.3396C9.56464 17.2693 9.46937 17.2298 9.37004 17.2298H7.8658V13.8588C7.8658 13.7594 7.82633 13.6642 7.75609 13.5939C7.68584 13.5237 7.59058 13.4842 7.49124 13.4842C7.3919 13.4842 7.29663 13.5237 7.22639 13.5939C7.15614 13.6642 7.11667 13.7594 7.11667 13.8588ZM3.55834 15.7316L2.32229 17.3797C2.29278 17.419 2.27131 17.4638 2.2591 17.5115C2.24689 17.5591 2.24419 17.6087 2.25114 17.6574C2.2581 17.7061 2.27457 17.7529 2.29963 17.7952C2.32469 17.8376 2.35785 17.8745 2.3972 17.9041C2.43656 17.9336 2.48133 17.955 2.52898 17.9673C2.57663 17.9795 2.62621 17.9822 2.6749 17.9752C2.7236 17.9683 2.77046 17.9518 2.81278 17.9267C2.85511 17.9016 2.89206 17.8685 2.92158 17.8291L4.02654 16.3556L5.1315 17.8291C5.19282 17.9037 5.28052 17.9517 5.37637 17.9633C5.47222 17.9748 5.56881 17.9489 5.64604 17.891C5.72328 17.833 5.7752 17.7476 5.79099 17.6523C5.80677 17.5571 5.78521 17.4594 5.73079 17.3797L4.49474 15.7316L5.73079 14.0835C5.78521 14.0038 5.80677 13.9061 5.79099 13.8109C5.7752 13.7156 5.72328 13.6302 5.64604 13.5722C5.56881 13.5143 5.47222 13.4884 5.37637 13.4999C5.28052 13.5114 5.19282 13.5595 5.1315 13.634L4.02654 15.1072L2.92158 13.634C2.89206 13.5947 2.85511 13.5615 2.81278 13.5365C2.77046 13.5114 2.7236 13.4949 2.6749 13.488C2.62621 13.481 2.57663 13.4837 2.52898 13.4959C2.48133 13.5082 2.43656 13.5296 2.3972 13.5591C2.35785 13.5887 2.32469 13.6256 2.29963 13.668C2.27457 13.7103 2.2581 13.7571 2.25114 13.8058C2.24419 13.8545 2.24689 13.9041 2.2591 13.9517C2.27131 13.9994 2.29278 14.0442 2.32229 14.0835L3.55834 15.7316ZM5.61843 10.4877H16.1062C16.2055 10.4877 16.3008 10.4483 16.371 10.378C16.4413 10.3078 16.4807 10.2125 16.4807 10.1132C16.4807 10.0138 16.4413 9.91856 16.371 9.84832C16.3008 9.77808 16.2055 9.73861 16.1062 9.73861H5.61843C5.51909 9.73861 5.42382 9.77808 5.35358 9.84832C5.28333 9.91856 5.24387 10.0138 5.24387 10.1132C5.24387 10.2125 5.28333 10.3078 5.35358 10.378C5.42382 10.4483 5.51909 10.4877 5.61843 10.4877ZM5.61843 8.61492H16.1062C16.2055 8.61492 16.3008 8.57545 16.371 8.50521C16.4413 8.43497 16.4807 8.3397 16.4807 8.24036C16.4807 8.14102 16.4413 8.04575 16.371 7.97551C16.3008 7.90527 16.2055 7.8658 16.1062 7.8658H5.61843C5.51909 7.8658 5.42382 7.90527 5.35358 7.97551C5.28333 8.04575 5.24387 8.14102 5.24387 8.24036C5.24387 8.3397 5.28333 8.43497 5.35358 8.50521C5.42382 8.57545 5.51909 8.61492 5.61843 8.61492ZM9.73861 6.74211H16.1062C16.2055 6.74211 16.3008 6.70265 16.371 6.6324C16.4413 6.56216 16.4807 6.46689 16.4807 6.36755C16.4807 6.26821 16.4413 6.17295 16.371 6.1027C16.3008 6.03246 16.2055 5.99299 16.1062 5.99299H9.73861C9.63927 5.99299 9.544 6.03246 9.47376 6.1027C9.40351 6.17295 9.36405 6.26821 9.36405 6.36755C9.36405 6.46689 9.40351 6.56216 9.47376 6.6324C9.544 6.70265 9.63927 6.74211 9.73861 6.74211ZM7.11667 1.27875L2.777 5.61843H7.11667V1.27875ZM9.73861 4.8693H16.1062C16.2055 4.8693 16.3008 4.82984 16.371 4.7596C16.4413 4.68935 16.4807 4.59408 16.4807 4.49474C16.4807 4.3954 16.4413 4.30013 16.371 4.22989C16.3008 4.15964 16.2055 4.12018 16.1062 4.12018H9.73861C9.63927 4.12018 9.544 4.15964 9.47376 4.22989C9.40351 4.30013 9.36405 4.3954 9.36405 4.49474C9.36405 4.59408 9.40351 4.68935 9.47376 4.7596C9.544 4.82984 9.63927 4.8693 9.73861 4.8693Z" fill="#0088FF"/>
</svg>
